<svg xmlns="http://www.w3.org/2000/svg" width="607pt" height="76pt" viewBox="0 0 607 76"><path fill="#3196e3" d="M0 59C7.95 39.6 15.9 20.16 23.85.73c1.32.02 2.63.04 3.95.04 7.8 19.4 15.63 38.8 23.4 58.23-1.3-.02-2.6-.02-3.9-.02-2.5-6.24-4.95-12.5-7.44-18.73-9.48.03-18.96 0-28.44.02C9 46.54 6.4 52.75 3.9 59c-1.3 0-2.6 0-3.9 0m12.6-21.75c8.7.04 17.4 0 26.1.03C34.44 26.18 30.14 15.12 25.93 4c-4.5 11.07-8.9 22.17-13.33 33.25zM283.18.75c3.66-.02 7.32 0 10.98-.02C301.84 20.13 309.4 39.57 317 59c-3.68 0-7.34 0-11 0-1.85-5.18-3.73-10.35-5.58-15.53-7.86 0-15.72 0-23.58 0-1.88 5.17-3.76 10.33-5.56 15.53-3.6 0-7.2 0-10.8 0 7.58-19.4 15.18-38.8 22.7-58.24m5.4 9.72c-3.06 8.4-6.06 16.83-9.07 25.25 6.06.02 12.1-.02 18.13.03-3.07-8.4-5.86-16.92-9.05-25.28zM415.26 59c0-19.42 0-38.85 0-58.27 3.16 0 6.32 0 9.48 0 0 19.43 0 38.85 0 58.27-3.16 0-6.32 0-9.48 0zm90-58.27c3.16 0 6.3 0 9.47 0 0 2.92 0 5.85.02 8.77-3.17-.04-6.34-.04-9.5 0 .02-2.92.02-5.85.02-8.77zM480.75 4c3.17 0 6.34 0 9.52 0 0 4.25 0 8.5 0 12.73 2.83 0 5.65 0 8.48 0 0 2.34 0 4.67 0 7-2.84 0-5.66 0-8.48 0 0 7.8 0 15.6 0 23.4.05 1.66.04 3.92 1.87 4.7 2.13.75 4.45.33 6.67.32-.06 2.3-.07 4.6-.08 6.9-4.75.4-10.02 1.23-14.36-1.24-3.06-1.76-3.5-5.57-3.6-8.75-.07-8.43 0-16.87-.02-25.3-2.42 0-4.83 0-7.24 0 .02-2.33.04-4.67.04-7 2.4 0 4.8 0 7.2 0 0-4.25 0-8.5 0-12.74zM60.38 19.43C68.66 12.96 82.92 15.8 86.8 26c-.1-3-.07-6-.07-9 .82 0 2.45 0 3.27 0 0 13.35 0 26.7 0 40.06-.02 5.43-1.53 11.53-6.25 14.78-6 4-13.93 3.88-20.6 1.8-5.1-1.6-8.02-6.76-8.34-11.9.8 0 2.4 0 3.2 0 .7 3.96 2.9 7.86 6.84 9.32 6.75 2.5 16.04 1.54 20-5.2 3.02-5.52 1.5-12 1.98-18-4.04 9.45-16.56 12.2-25.1 7.36-5.46-3-8.22-9.27-8.8-15.25-.85-7.43 1.26-15.86 7.48-20.54m5.97.07C56.27 23.17 54 36.37 57.53 45.4c2.63 7.65 12 11.4 19.34 8.4 5.46-2 8.78-7.52 9.58-13.08.9-5.94-.12-12.5-4.06-17.22-3.93-4.42-10.53-5.9-16.06-4zm35.8 3.72c6.13-8.74 20.3-9.8 27.7-2.13 4.46 4.55 5.8 11.2 5.68 17.37-11.56-.03-23.1 0-34.67 0 .25 4.47 1 9.13 3.7 12.84 5.6 8.25 20.08 8.05 25.07-.73 1.1-1.82 1.76-3.86 2.5-5.85.8 0 2.4.02 3.2.02-.98 3.76-2.33 7.6-5.18 10.37-4.83 4.8-12.37 5.7-18.77 4.3-6-1.4-10.7-6.4-12.4-12.23-2.32-7.9-1.63-17.1 3.18-23.96m4.54-.6c-3.8 3.3-5.18 8.34-5.83 13.1 10.5 0 21 .05 31.5 0-.58-4.64-1.7-9.55-5.23-12.9-5.38-5.4-14.97-5.46-20.46-.2zm39.24 3.73c3.42-9.7 16.22-13.16 24.7-8.06 4.16 2.7 5.8 7.9 5.8 12.66.02 9.36 0 18.7 0 28.07-.8 0-2.4 0-3.2 0-.03-9.34.08-18.7-.03-28.03-.02-4.16-1.6-8.68-5.43-10.78-5.65-2.88-13.23-1.6-17.48 3.15-3.07 3.4-4.26 8.08-4.3 12.57-.05 7.7 0 15.38-.02 23.07-.82 0-2.45 0-3.26 0 0-14 0-28 0-42 .8 0 2.44 0 3.26 0 0 3.1 0 6.2-.04 9.32zm43.6-4.8c6.3-6.48 17.07-7.17 24.74-2.8 4.08 2.3 6.1 6.84 6.85 11.27-.8 0-2.4 0-3.2 0-.68-3.12-1.85-6.38-4.56-8.3-6.4-4.55-16.4-4.02-21.6 2.17-5.9 6.98-6.16 17.57-2.24 25.55 4.23 8.34 16.37 10.4 23.44 4.53 3.06-2.33 4.5-6.04 5.4-9.64 1.07 0 2.15-.03 3.24-.06-.86 3.77-2.08 7.65-4.92 10.43-7.58 7.76-22.16 7.12-28.6-1.78-6.17-9.2-6.13-22.96 1.43-31.36zm140.4 1.6c2.5-3.4 5.8-6.54 10.13-7.3 5.22-.9 11.3-.1 15.2 3.83 2.6 2.72 3.44 6.6 3.43 10.28 0 9.68-.02 19.37 0 29.06-3.16 0-6.32 0-9.48 0-.02-9 .06-18-.02-27 0-3.65-1.38-8.14-5.47-8.94-6.26-2-12.83 3.05-13.22 9.43-.22 8.8 0 17.65-.08 26.5-3.16 0-6.32 0-9.47 0 0-14.1 0-28.2 0-42.28 3 0 6 0 9 0 0 2.14 0 4.27-.04 6.4zm46.34-6c5.84-2 12.36-2.2 18.33-.56 4.64 1.27 9.1 5 9.3 10.12.28 8.06-.16 16.16.18 24.24-.13 2.5 2.77 1.95 4.4 2.2 0 2.05-.03 4.1 0 6.14-4.6 1.5-11.78 1.96-13.3-3.9-4.54 3.63-10.5 5.14-16.25 4.82-4.28-.36-8.86-2.05-11.32-5.77-3.67-5.63-2.1-14.47 4.23-17.5 6.3-2.87 13.5-2.26 20.07-4.12 4.22-1.02 3.92-7.4.24-9-5.5-2.4-14.47-1.44-15.7 5.67-3.13-.04-6.27-.04-9.4-.04.46-5.47 4-10.48 9.24-12.32m2.27 24.43c-3.66 1.6-4.75 7.7-1.03 9.82 5.18 3.06 13.15 1.9 16.35-3.5 1.2-3.16.45-6.66.66-9.96-5.07 2.27-10.96 1.3-16 3.63zm148.7-18.08c6.06-8.7 18.75-9.9 27.8-5.56 4.94 2.4 7.87 7.5 8.64 12.8-3.14.03-6.3.02-9.45.04-.8-2.05-1.36-4.4-3.2-5.8-5-4.08-13.7-2.5-16.54 3.48-2.83 6.1-2.87 13.7.4 19.64 3 5.4 11.23 6.65 15.7 2.43 2.15-1.83 2.78-4.7 3.6-7.25 3.14 0 6.3 0 9.45 0-1.13 5.17-3.2 10.6-7.8 13.65-9.5 6.26-24.62 3.92-30.07-6.65-4.2-8.3-3.73-19.05 1.5-26.8zm43.77-1.35c3.1-4.5 8.77-6.2 13.98-6.5 5.8-.38 12.34.4 16.66 4.7 2.32 2.12 3.15 5.25 4.07 8.14-3.3.03-6.6.04-9.9 0-1.8-6.2-9.78-6.92-14.8-4.5-2.98 1.23-2.57 5.75.28 6.9 6.47 3.25 14.3 2.55 20.6 6.35 2.74 1.6 4.52 4.5 5.07 7.6V48c-.7 5.9-6 9.95-11.48 11.22-7.4 1.83-16.22 1.54-22.35-3.53-3.1-2.46-4.04-6.44-4.7-10.14 3.15-.04 6.3-.04 9.48-.02.83 2.38 1.64 5.2 4.24 6.23 4.3 1.86 9.8 1.8 13.77-.85 2.7-2.13 1.46-6.37-1.43-7.65-6.5-3.08-14.3-2.42-20.43-6.42-4.82-3-6-10.06-3.07-14.75zM223.5 17c.95 0 2.82 0 3.76 0 5.23 12.8 10.6 25.56 15.84 38.37 4.83-12.8 9.72-25.6 14.62-38.38.9 0 2.65 0 3.53 0C255.12 32.6 249 48.25 242.8 63.86c-1.55 3.47-2.83 7.74-6.66 9.34-2.6.9-5.42.7-8.13.85 0-.67 0-2 0-2.66 3.26-.26 7.1-.37 9.26-3.26 1.95-2.83 2.8-6.25 4.1-9.4-5.93-13.92-11.9-27.82-17.84-41.74zm205.74-.27c3.52 0 7.04 0 10.56.03 3.63 10.62 7.4 21.2 11.13 31.77 3.56-10.6 7.26-21.17 10.8-31.8 3.34 0 6.68 0 10.03 0-5.54 14.7-11.05 29.44-16.62 44.13-1.88 4.57-3.35 9.8-7.6 12.78-4.17 2.97-9.53 2.1-14.27 1.66 0-2.62 0-5.24 0-7.85 2.62.32 5.55 1.2 8.02-.22 2.7-1.9 3.07-5.5 4.24-8.36-5.5-14.02-10.87-28.1-16.3-42.14zm76.03 0c3.15 0 6.3 0 9.46 0 0 14.1 0 28.18 0 42.27-3.16 0-6.3 0-9.47 0 0-14.1 0-28.18 0-42.27z"/></svg>