<?xml version="1.0" encoding="UTF-8"?>
<svg width="347.2" height="95.448" version="1.1" viewBox="0 0 91.864465 25.253894" xmlns="http://www.w3.org/2000/svg" xmlns:cc="http://creativecommons.org/ns#" xmlns:dc="http://purl.org/dc/elements/1.1/" xmlns:rdf="http://www.w3.org/1999/02/22-rdf-syntax-ns#" xmlns:xlink="http://www.w3.org/1999/xlink">
<defs>
<clipPath>
<path d="m1 1.6016h558v393.48h-558z"/>
</clipPath>
<clipPath id="a">
<rect width="559" height="397"/>
</clipPath>
<g clip-path="url(#a)"></g>
</defs>
<metadata>
<rdf:RDF>
<cc:Work rdf:about="">
<dc:format>image/svg+xml</dc:format>
<dc:type rdf:resource="http://purl.org/dc/dcmitype/StillImage"/>
<dc:title/>
</cc:Work>
</rdf:RDF>
</metadata>
<g transform="translate(-.40504 -183.33)">
<path d="m30.186 188.25 2.2194 7.9852h-4.5974zm-4.0356 13.579-2.0195 6.6238h11.807l-1.8989-6.6238zm30.817-18.365h-22.666v7.1132h7.1511v17.876h11.507c-0.70995-0.43771-5.5934-4.3148-5.5934-11.549 0-6.0138 3.6497-11.897 9.6015-13.441m3.9288 18.589c2.6744 0 4.8214-2.2194 4.8214-5.0247 0-2.7881-2.0127-5.3108-4.7215-5.3108-2.7226 0-4.8628 2.5227-4.8628 5.3108 0 2.8053 2.0092 5.0247 4.7628 5.0247m23.773-2.8811-4.6008-15.708h-11.78v24.989h7.3579v-15.664h0.05169l4.5595 15.664h11.879v-24.989h-7.4234v15.708zm-69.874 9.281 2.1264-7.0064h-7.8817v-2.1195h8.5262l2.0264-6.7169h-10.553v-2.0333h11.139l2.1505-7.1132h-21.791v24.989z" fill="#1175c7"/>
</g>
</svg>
