<?xml version="1.0" encoding="utf-8"?>
<!-- Generator: Adobe Illustrator 24.0.2, SVG Export Plug-In . SVG Version: 6.00 Build 0)  -->
<svg version="1.1" id="layer_1" xmlns="http://www.w3.org/2000/svg" xmlns:xlink="http://www.w3.org/1999/xlink" x="0px" y="0px"
	 viewBox="0 0 240 240" style="enable-background:new 0 0 240 240;" xml:space="preserve">
<style type="text/css">
	.st0{fill-rule:evenodd;clip-rule:evenodd;fill:#FFFFFF;fill-opacity:1.000000e-02;}
	.st1{fill-rule:evenodd;clip-rule:evenodd;fill:url(#Fill-1_1_);}
	.st2{fill-rule:evenodd;clip-rule:evenodd;fill:url(#Fill-2_1_);}
	.st3{fill-rule:evenodd;clip-rule:evenodd;fill:url(#Fill-3_2_);}
	.st4{fill-rule:evenodd;clip-rule:evenodd;fill:url(#Fill-4_4_);}
	.st5{fill-rule:evenodd;clip-rule:evenodd;fill:url(#Fill-5_2_);}
	.st6{fill-rule:evenodd;clip-rule:evenodd;fill:url(#Fill-6_1_);}
	.st7{fill-rule:evenodd;clip-rule:evenodd;fill:url(#Fill-7_2_);}
	.st8{fill-rule:evenodd;clip-rule:evenodd;fill:url(#Fill-8_1_);}
	.st9{fill-rule:evenodd;clip-rule:evenodd;fill:url(#Fill-9_2_);}
	.st10{fill-rule:evenodd;clip-rule:evenodd;fill:url(#Fill-10_1_);}
	.st11{fill-rule:evenodd;clip-rule:evenodd;fill:url(#Fill-11_4_);}
	.st12{fill-rule:evenodd;clip-rule:evenodd;fill:url(#Fill-12_1_);}
	.st13{fill-rule:evenodd;clip-rule:evenodd;fill:url(#Oval_1_);}
	.st14{fill-rule:evenodd;clip-rule:evenodd;fill:url(#Oval_2_);}
	.st15{fill-rule:evenodd;clip-rule:evenodd;fill:url(#Oval_3_);}
	.st16{fill-rule:evenodd;clip-rule:evenodd;fill:url(#Combined-Shape_1_);}
	.st17{fill-rule:evenodd;clip-rule:evenodd;fill:url(#Combined-Shape_4_);}
	.st18{fill-rule:evenodd;clip-rule:evenodd;fill:url(#Oval_4_);}
	.st19{fill-rule:evenodd;clip-rule:evenodd;fill:url(#Fill-1_2_);}
	.st20{fill-rule:evenodd;clip-rule:evenodd;fill:url(#Fill-4_5_);}
	.st21{fill-rule:evenodd;clip-rule:evenodd;fill:url(#Fill-1_3_);}
	.st22{fill-rule:evenodd;clip-rule:evenodd;fill:url(#Fill-4_6_);}
	.st23{fill-rule:evenodd;clip-rule:evenodd;fill:url(#Fill-1_4_);}
	.st24{fill-rule:evenodd;clip-rule:evenodd;fill:url(#Fill-4_7_);}
	.st25{fill-rule:evenodd;clip-rule:evenodd;fill:url(#Fill-11_5_);}
	.st26{fill-rule:evenodd;clip-rule:evenodd;fill:url(#Fill-11_6_);}
	.st27{fill-rule:evenodd;clip-rule:evenodd;fill:url(#Fill-1_5_);}
	.st28{fill-rule:evenodd;clip-rule:evenodd;fill:url(#Fill-3_3_);}
	.st29{fill-rule:evenodd;clip-rule:evenodd;fill:url(#Fill-5_3_);}
	.st30{fill-rule:evenodd;clip-rule:evenodd;fill:url(#Fill-7_3_);}
	.st31{fill-rule:evenodd;clip-rule:evenodd;fill:url(#Fill-9_3_);}
	.st32{fill-rule:evenodd;clip-rule:evenodd;fill:url(#Fill-11_7_);}
	.st33{fill-rule:evenodd;clip-rule:evenodd;fill:url(#Fill-13_2_);}
	.st34{fill-rule:evenodd;clip-rule:evenodd;fill:url(#Fill-1_12_);}
	.st35{fill-rule:evenodd;clip-rule:evenodd;fill:url(#Fill-3_6_);}
	.st36{fill-rule:evenodd;clip-rule:evenodd;fill:url(#Fill-5_6_);}
	.st37{fill-rule:evenodd;clip-rule:evenodd;fill:url(#Fill-7_5_);}
	.st38{fill-rule:evenodd;clip-rule:evenodd;fill:url(#Fill-9_5_);}
	.st39{fill-rule:evenodd;clip-rule:evenodd;fill:url(#Fill-11_9_);}
	.st40{fill-rule:evenodd;clip-rule:evenodd;fill:url(#Fill-13_3_);}
	.st41{fill-rule:evenodd;clip-rule:evenodd;fill:url(#Path-28_1_);}
	.st42{fill-rule:evenodd;clip-rule:evenodd;fill:url(#Oval_5_);}
	.st43{fill-rule:evenodd;clip-rule:evenodd;fill:url(#Mask_1_);}
	.st44{opacity:0.6;fill-rule:evenodd;clip-rule:evenodd;fill:url(#Path_1_);}
	.st45{fill-rule:evenodd;clip-rule:evenodd;fill:url(#Mask_2_);}
	.st46{opacity:0.6;fill-rule:evenodd;clip-rule:evenodd;fill:url(#Path_2_);}
	.st47{fill-rule:evenodd;clip-rule:evenodd;fill:url(#Mask_3_);}
	.st48{opacity:0.6;fill-rule:evenodd;clip-rule:evenodd;fill:url(#Path_3_);}
</style>
<g>
	<rect id="Rectangle_12_" x="0" class="st0" width="240" height="240"/>

		<linearGradient id="Fill-11_4_" gradientUnits="userSpaceOnUse" x1="-447.4432" y1="278.1857" x2="-446.6635" y2="278.1857" gradientTransform="matrix(176 0 0 -76 78764 21321.7793)">
		<stop  offset="0" style="stop-color:#69BBFF;stop-opacity:0.5"/>
		<stop  offset="1" style="stop-color:#257AFF;stop-opacity:0"/>
	</linearGradient>
	<path id="Fill-11_8_" class="st11" d="M190,179.7c0,21-39.4,38-88,38s-88-17-88-38s39.4-38,88-38S190,158.7,190,179.7"/>

		<linearGradient id="Fill-11_5_" gradientUnits="userSpaceOnUse" x1="-446.2606" y1="274.3664" x2="-445.186" y2="274.396" gradientTransform="matrix(118 0 0 -50 52758 13918.1104)">
		<stop  offset="0" style="stop-color:#69BBFF;stop-opacity:0.5"/>
		<stop  offset="1" style="stop-color:#257AFF;stop-opacity:0"/>
	</linearGradient>
	<path id="Fill-11_3_" class="st25" d="M226,199c0,13.8-26.4,25-59,25s-59-11.2-59-25s26.4-25,59-25S226,185.2,226,199"/>
	<g id="Group-15_4_" transform="translate(23.000000, 0.000000)">

			<linearGradient id="Fill-1_1_" gradientUnits="userSpaceOnUse" x1="-468.5342" y1="277.0392" x2="-469.5342" y2="276.9142" gradientTransform="matrix(130 0 0 -65 61054 18170.1094)">
			<stop  offset="0" style="stop-color:#69BBFF"/>
			<stop  offset="1" style="stop-color:#257AFF"/>
		</linearGradient>
		<path id="Fill-1_7_" class="st1" d="M14,136v43.3c0,12,29.1,21.7,65,21.7s65-9.7,65-21.7V136H14z"/>

			<linearGradient id="Fill-3_2_" gradientUnits="userSpaceOnUse" x1="-469.5482" y1="272.6162" x2="-468.5285" y2="272.7274" gradientTransform="matrix(130 0 0 -43.3333 61054 11951.7773)">
			<stop  offset="0" style="stop-color:#69BBFF"/>
			<stop  offset="1" style="stop-color:#257AFF"/>
		</linearGradient>
		<path id="Fill-3_4_" class="st3" d="M144,136c0,12-29.1,21.7-65,21.7S14,148,14,136s29.1-21.7,65-21.7S144,124,144,136"/>

			<linearGradient id="Fill-5_2_" gradientUnits="userSpaceOnUse" x1="-468.5342" y1="277.0392" x2="-469.5342" y2="276.9142" gradientTransform="matrix(130 0 0 -65 61054 18120.9414)">
			<stop  offset="0" style="stop-color:#69BBFF"/>
			<stop  offset="1" style="stop-color:#257AFF"/>
		</linearGradient>
		<path id="Fill-5_4_" class="st5" d="M14,86.8v43.3c0,12,29.1,21.7,65,21.7s65-9.7,65-21.7V86.8H14z"/>

			<linearGradient id="Fill-7_2_" gradientUnits="userSpaceOnUse" x1="-469.5482" y1="272.6162" x2="-468.5285" y2="272.7274" gradientTransform="matrix(130 0 0 -43.3333 61054 11902.6104)">
			<stop  offset="0" style="stop-color:#69BBFF"/>
			<stop  offset="1" style="stop-color:#257AFF"/>
		</linearGradient>
		<path id="Fill-7_4_" class="st7" d="M144,86.8c0,12-29.1,21.7-65,21.7s-65-9.7-65-21.7s29.1-21.7,65-21.7S144,74.9,144,86.8"/>

			<linearGradient id="Fill-9_2_" gradientUnits="userSpaceOnUse" x1="-468.5342" y1="277.0392" x2="-469.5342" y2="276.9142" gradientTransform="matrix(130 0 0 -65 61054 18071.7773)">
			<stop  offset="0" style="stop-color:#69BBFF"/>
			<stop  offset="1" style="stop-color:#257AFF"/>
		</linearGradient>
		<path id="Fill-9_4_" class="st9" d="M14,37.7V81c0,12,29.1,21.7,65,21.7S144,93,144,81V37.7H14z"/>

			<linearGradient id="Fill-11_6_" gradientUnits="userSpaceOnUse" x1="-469.5482" y1="272.6162" x2="-468.5285" y2="272.7274" gradientTransform="matrix(130 0 0 -43.3333 61054 11853.4434)">
			<stop  offset="0" style="stop-color:#69BBFF"/>
			<stop  offset="1" style="stop-color:#257AFF"/>
		</linearGradient>
		<path id="Fill-11_2_" class="st26" d="M144,37.7c0,12-29.1,21.7-65,21.7s-65-9.7-65-21.7S43.1,16,79,16S144,25.7,144,37.7"/>

			<linearGradient id="Fill-13_2_" gradientUnits="userSpaceOnUse" x1="-461.6155" y1="246.9587" x2="-462.6155" y2="247.072" gradientTransform="matrix(43.3333 0 0 -14.4444 20104 3605.6658)">
			<stop  offset="0" style="stop-color:#69BBFF"/>
			<stop  offset="1" style="stop-color:#257AFF"/>
		</linearGradient>
		<path id="Fill-13_4_" class="st33" d="M100.7,37.7c0,4-9.7,7.2-21.7,7.2s-21.7-3.2-21.7-7.2S67,30.4,79,30.4
			S100.7,33.7,100.7,37.7"/>
	</g>
	<g id="Group-15_1_" transform="translate(108.000000, 69.000000)">

			<linearGradient id="Fill-1_2_" gradientUnits="userSpaceOnUse" x1="-551.9958" y1="204.2382" x2="-552.9958" y2="204.1132" gradientTransform="matrix(90 0 0 -45 49784 9308.1875)">
			<stop  offset="0" style="stop-color:#69BBFF"/>
			<stop  offset="1" style="stop-color:#257AFF"/>
		</linearGradient>
		<path id="Fill-1_6_" class="st19" d="M14,99.1v30c0,8.3,20.1,15,45,15s45-6.7,45-15v-30H14z"/>

			<linearGradient id="Fill-3_3_" gradientUnits="userSpaceOnUse" x1="-553.0097" y1="197.9148" x2="-551.9901" y2="198.0259" gradientTransform="matrix(90 0 0 -30 49784 6038.187)">
			<stop  offset="0" style="stop-color:#69BBFF"/>
			<stop  offset="1" style="stop-color:#257AFF"/>
		</linearGradient>
		<path id="Fill-3_1_" class="st28" d="M104,99.1c0,8.3-20.1,15-45,15s-45-6.7-45-15s20.1-15,45-15S104,90.8,104,99.1"/>

			<linearGradient id="Fill-5_3_" gradientUnits="userSpaceOnUse" x1="-551.9958" y1="204.2382" x2="-552.9958" y2="204.1132" gradientTransform="matrix(90 0 0 -45 49784 9274.1484)">
			<stop  offset="0" style="stop-color:#69BBFF"/>
			<stop  offset="1" style="stop-color:#257AFF"/>
		</linearGradient>
		<path id="Fill-5_1_" class="st29" d="M14,65v30c0,8.3,20.1,15,45,15s45-6.7,45-15V65H14z"/>

			<linearGradient id="Fill-7_3_" gradientUnits="userSpaceOnUse" x1="-553.0097" y1="197.9148" x2="-551.9901" y2="198.0259" gradientTransform="matrix(90 0 0 -30 49784 6004.1489)">
			<stop  offset="0" style="stop-color:#69BBFF"/>
			<stop  offset="1" style="stop-color:#257AFF"/>
		</linearGradient>
		<path id="Fill-7_1_" class="st30" d="M104,65c0,8.3-20.1,15-45,15s-45-6.7-45-15s20.1-15,45-15S104,56.8,104,65"/>

			<linearGradient id="Fill-9_3_" gradientUnits="userSpaceOnUse" x1="-551.9955" y1="204.2166" x2="-552.9959" y2="204.0908" gradientTransform="matrix(90 0 0 -45 49784 9240.1104)">
			<stop  offset="0" style="stop-color:#69BBFF"/>
			<stop  offset="1" style="stop-color:#257AFF"/>
		</linearGradient>
		<path id="Fill-9_1_" class="st31" d="M14,32v30c0,8.3,20.1,15,45,15s45-6.7,45-15V32H14z"/>

			<linearGradient id="Fill-11_7_" gradientUnits="userSpaceOnUse" x1="-553.0097" y1="197.9148" x2="-551.9901" y2="198.0259" gradientTransform="matrix(90 0 0 -30 49784 5970.1104)">
			<stop  offset="0" style="stop-color:#69BBFF"/>
			<stop  offset="1" style="stop-color:#257AFF"/>
		</linearGradient>
		<path id="Fill-11_1_" class="st32" d="M104,31c0,8.3-20.1,15-45,15s-45-6.7-45-15s20.1-15,45-15S104,22.7,104,31"/>

			<linearGradient id="Fill-13_3_" gradientUnits="userSpaceOnUse" x1="-542.0001" y1="160.8544" x2="-543.0001" y2="160.9677" gradientTransform="matrix(30 0 0 -10 16334 1640.1102)">
			<stop  offset="0" style="stop-color:#69BBFF"/>
			<stop  offset="1" style="stop-color:#257AFF"/>
		</linearGradient>
		<path id="Fill-13_1_" class="st40" d="M74,31c0,2.8-6.7,5-15,5s-15-2.2-15-5s6.7-5,15-5S74,28.2,74,31"/>
	</g>
</g>
</svg>
