<?xml version="1.0" encoding="utf-8"?>
<!-- Generator: Adobe Illustrator 24.0.2, SVG Export Plug-In . SVG Version: 6.00 Build 0)  -->
<svg version="1.1" id="layer_1" xmlns="http://www.w3.org/2000/svg" xmlns:xlink="http://www.w3.org/1999/xlink" x="0px" y="0px"
	 viewBox="0 0 240 240" style="enable-background:new 0 0 240 240;" xml:space="preserve">
<style type="text/css">
	.st0{fill-rule:evenodd;clip-rule:evenodd;fill:#FFFFFF;fill-opacity:1.000000e-02;}
	.st1{fill-rule:evenodd;clip-rule:evenodd;fill:url(#Fill-1_1_);}
	.st2{fill-rule:evenodd;clip-rule:evenodd;fill:url(#Fill-2_1_);}
	.st3{fill-rule:evenodd;clip-rule:evenodd;fill:url(#Fill-3_2_);}
	.st4{fill-rule:evenodd;clip-rule:evenodd;fill:url(#Fill-4_4_);}
	.st5{fill-rule:evenodd;clip-rule:evenodd;fill:url(#Fill-5_2_);}
	.st6{fill-rule:evenodd;clip-rule:evenodd;fill:url(#Fill-6_1_);}
	.st7{fill-rule:evenodd;clip-rule:evenodd;fill:url(#Fill-7_2_);}
	.st8{fill-rule:evenodd;clip-rule:evenodd;fill:url(#Fill-8_1_);}
	.st9{fill-rule:evenodd;clip-rule:evenodd;fill:url(#Fill-9_2_);}
	.st10{fill-rule:evenodd;clip-rule:evenodd;fill:url(#Fill-10_1_);}
	.st11{fill-rule:evenodd;clip-rule:evenodd;fill:url(#Fill-11_4_);}
	.st12{fill-rule:evenodd;clip-rule:evenodd;fill:url(#Fill-12_1_);}
	.st13{fill-rule:evenodd;clip-rule:evenodd;fill:url(#Oval_1_);}
	.st14{fill-rule:evenodd;clip-rule:evenodd;fill:url(#Oval_2_);}
	.st15{fill-rule:evenodd;clip-rule:evenodd;fill:url(#Oval_3_);}
	.st16{fill-rule:evenodd;clip-rule:evenodd;fill:url(#Combined-Shape_1_);}
	.st17{fill-rule:evenodd;clip-rule:evenodd;fill:url(#Combined-Shape_4_);}
	.st18{fill-rule:evenodd;clip-rule:evenodd;fill:url(#Oval_4_);}
	.st19{fill-rule:evenodd;clip-rule:evenodd;fill:url(#Fill-1_2_);}
	.st20{fill-rule:evenodd;clip-rule:evenodd;fill:url(#Fill-4_5_);}
	.st21{fill-rule:evenodd;clip-rule:evenodd;fill:url(#Fill-1_3_);}
	.st22{fill-rule:evenodd;clip-rule:evenodd;fill:url(#Fill-4_6_);}
	.st23{fill-rule:evenodd;clip-rule:evenodd;fill:url(#Fill-1_4_);}
	.st24{fill-rule:evenodd;clip-rule:evenodd;fill:url(#Fill-4_7_);}
	.st25{fill-rule:evenodd;clip-rule:evenodd;fill:url(#Fill-11_5_);}
	.st26{fill-rule:evenodd;clip-rule:evenodd;fill:url(#Fill-11_6_);}
	.st27{fill-rule:evenodd;clip-rule:evenodd;fill:url(#Fill-1_5_);}
	.st28{fill-rule:evenodd;clip-rule:evenodd;fill:url(#Fill-3_3_);}
	.st29{fill-rule:evenodd;clip-rule:evenodd;fill:url(#Fill-5_3_);}
	.st30{fill-rule:evenodd;clip-rule:evenodd;fill:url(#Fill-7_3_);}
	.st31{fill-rule:evenodd;clip-rule:evenodd;fill:url(#Fill-9_3_);}
	.st32{fill-rule:evenodd;clip-rule:evenodd;fill:url(#Fill-11_7_);}
	.st33{fill-rule:evenodd;clip-rule:evenodd;fill:url(#Fill-13_2_);}
	.st34{fill-rule:evenodd;clip-rule:evenodd;fill:url(#Fill-1_12_);}
	.st35{fill-rule:evenodd;clip-rule:evenodd;fill:url(#Fill-3_6_);}
	.st36{fill-rule:evenodd;clip-rule:evenodd;fill:url(#Fill-5_6_);}
	.st37{fill-rule:evenodd;clip-rule:evenodd;fill:url(#Fill-7_5_);}
	.st38{fill-rule:evenodd;clip-rule:evenodd;fill:url(#Fill-9_5_);}
	.st39{fill-rule:evenodd;clip-rule:evenodd;fill:url(#Fill-11_9_);}
	.st40{fill-rule:evenodd;clip-rule:evenodd;fill:url(#Fill-13_3_);}
	.st41{fill-rule:evenodd;clip-rule:evenodd;fill:url(#Path-28_1_);}
	.st42{fill-rule:evenodd;clip-rule:evenodd;fill:url(#Oval_5_);}
	.st43{fill-rule:evenodd;clip-rule:evenodd;fill:url(#Mask_1_);}
	.st44{opacity:0.6;fill-rule:evenodd;clip-rule:evenodd;fill:url(#Path_1_);}
	.st45{fill-rule:evenodd;clip-rule:evenodd;fill:url(#Mask_2_);}
	.st46{opacity:0.6;fill-rule:evenodd;clip-rule:evenodd;fill:url(#Path_2_);}
	.st47{fill-rule:evenodd;clip-rule:evenodd;fill:url(#Mask_3_);}
	.st48{opacity:0.6;fill-rule:evenodd;clip-rule:evenodd;fill:url(#Path_3_);}
</style>
<rect id="Rectangle_29_" x="0" class="st0" width="240" height="240"/>
<linearGradient id="Oval_1_" gradientUnits="userSpaceOnUse" x1="-446.4372" y1="538.3722" x2="-447.0554" y2="538.8397" gradientTransform="matrix(183.3333 0 0 -183.3333 82058.3281 98890.7734)">
	<stop  offset="0" style="stop-color:#69BBFF;stop-opacity:0.5"/>
	<stop  offset="1" style="stop-color:#257AFF;stop-opacity:0"/>
</linearGradient>
<circle id="Oval_26_" class="st13" cx="120" cy="120" r="110"/>
<linearGradient id="Oval_2_" gradientUnits="userSpaceOnUse" x1="-445.8846" y1="537.8043" x2="-446.8277" y2="538.8929" gradientTransform="matrix(150 0 0 -150 67075 80874.1094)">
	<stop  offset="0" style="stop-color:#69BBFF"/>
	<stop  offset="1" style="stop-color:#257AFF;stop-opacity:0"/>
</linearGradient>
<circle id="Oval_25_" class="st14" cx="120" cy="120" r="90"/>
<linearGradient id="Oval_3_" gradientUnits="userSpaceOnUse" x1="-443.0838" y1="537.7606" x2="-443.3828" y2="538.9609" gradientTransform="matrix(75 0 0 -150 33362.5 80874.1094)">
	<stop  offset="0" style="stop-color:#69BBFF"/>
	<stop  offset="1" style="stop-color:#257AFF"/>
</linearGradient>
<ellipse id="Oval_24_" class="st15" cx="120" cy="120" rx="45" ry="90"/>
<linearGradient id="Combined-Shape_1_" gradientUnits="userSpaceOnUse" x1="-443.1491" y1="537.7685" x2="-443.3669" y2="538.8045" gradientTransform="matrix(75 0 0 -150 33325 80874.1094)">
	<stop  offset="0" style="stop-color:#69BBFF"/>
	<stop  offset="1" style="stop-color:#257AFF;stop-opacity:0"/>
</linearGradient>
<path id="Combined-Shape_3_" class="st16" d="M120,30v180c-49.7,0-90-40.3-90-90S70.3,30,120,30z"/>
<linearGradient id="Combined-Shape_4_" gradientUnits="userSpaceOnUse" x1="-444.9686" y1="544.2236" x2="-445.382" y2="543.2167" gradientTransform="matrix(-1.400000e-14 75 150 2.800000e-14 -81425 33474.1094)">
	<stop  offset="0" style="stop-color:#69BBFF"/>
	<stop  offset="1" style="stop-color:#257AFF;stop-opacity:0"/>
</linearGradient>
<path id="Combined-Shape_2_" class="st17" d="M210,120H30c0-49.7,40.3-90,90-90S210,70.3,210,120z"/>
<linearGradient id="Oval_4_" gradientUnits="userSpaceOnUse" x1="-446.9364" y1="534.399" x2="-446.9364" y2="535.4863" gradientTransform="matrix(183.3333 0 0 -58.3333 82058.3281 31328.2754)">
	<stop  offset="0" style="stop-color:#69BBFF"/>
	<stop  offset="1" style="stop-color:#257AFF;stop-opacity:0"/>
</linearGradient>
<ellipse id="Oval_23_" class="st18" cx="120" cy="120" rx="110" ry="35"/>
<linearGradient id="Fill-1_1_" gradientUnits="userSpaceOnUse" x1="-442.7033" y1="537.0605" x2="-442.2885" y2="536.0666" gradientTransform="matrix(66.6668 0 0 -79.9184 29580.0742 42943.3242)">
	<stop  offset="0" style="stop-color:#C7E8FF"/>
	<stop  offset="1" style="stop-color:#257AFF"/>
</linearGradient>
<path id="Fill-1_11_" class="st1" d="M104.3,21.6c-15.6-15.5-40.9-15.5-56.6,0s-15.6,40.7,0,56.2L76,105.9l28.3-28.1
	C119.9,62.3,119.9,37.1,104.3,21.6"/>
<linearGradient id="Fill-4_4_" gradientUnits="userSpaceOnUse" x1="-436.0118" y1="531.6304" x2="-435.3117" y2="530.7903" gradientTransform="matrix(33.3337 0 0 -33.1038 14596.8223 17633.1445)">
	<stop  offset="0" style="stop-color:#69BBFF"/>
	<stop  offset="1" style="stop-color:#257AFF;stop-opacity:0"/>
</linearGradient>
<path id="Fill-4_3_" class="st4" d="M90.1,63.8c-7.8,7.8-20.5,7.8-28.3,0C54,56,54,43.4,61.9,35.7c7.8-7.8,20.5-7.8,28.3,0
	S98,56,90.1,63.8"/>
<linearGradient id="Fill-1_2_" gradientUnits="userSpaceOnUse" x1="-439.4687" y1="535.4109" x2="-439.0343" y2="534.4379" gradientTransform="matrix(46.6668 0 0 -56.3314 20663.3887 30228.5664)">
	<stop  offset="0" style="stop-color:#C7E8FF"/>
	<stop  offset="1" style="stop-color:#257AFF"/>
</linearGradient>
<path id="Fill-1_10_" class="st19" d="M183.8,73.2c-10.9-10.9-28.7-10.9-39.6,0s-10.9,28.7,0,39.6l19.8,19.8l19.8-19.8
	C194.7,101.9,194.7,84.1,183.8,73.2"/>
<linearGradient id="Fill-4_5_" gradientUnits="userSpaceOnUse" x1="-429.4341" y1="527.4171" x2="-428.7346" y2="526.5647" gradientTransform="matrix(23.3336 0 0 -23.3336 10175.1094 12388.4092)">
	<stop  offset="0" style="stop-color:#69BBFF"/>
	<stop  offset="1" style="stop-color:#257AFF;stop-opacity:0"/>
</linearGradient>
<path id="Fill-4_1_" class="st20" d="M173.9,102.9c-5.5,5.5-14.3,5.5-19.8,0c-5.5-5.5-5.5-14.3,0-19.8c5.5-5.5,14.3-5.5,19.8,0
	C179.4,88.6,179.4,97.4,173.9,102.9"/>
<linearGradient id="Fill-1_3_" gradientUnits="userSpaceOnUse" x1="-434.0306" y1="532.1158" x2="-433.5962" y2="531.1427" gradientTransform="matrix(30.0001 0 0 -36.213 13135.0342 19384.5352)">
	<stop  offset="0" style="stop-color:#C7E8FF"/>
	<stop  offset="1" style="stop-color:#257AFF"/>
</linearGradient>
<path id="Fill-1_9_" class="st21" d="M132.7,118.3c-7-7-18.4-7-25.5,0c-7,7-7,18.4,0,25.5l12.7,12.7l12.7-12.7
	C139.8,136.7,139.8,125.3,132.7,118.3"/>
<linearGradient id="Fill-4_6_" gradientUnits="userSpaceOnUse" x1="-418.558" y1="519.4619" x2="-417.8586" y2="518.6094" gradientTransform="matrix(15.0002 0 0 -15.0002 6392.5693 7915.8613)">
	<stop  offset="0" style="stop-color:#69BBFF"/>
	<stop  offset="1" style="stop-color:#257AFF;stop-opacity:0"/>
</linearGradient>
<path id="Fill-4_2_" class="st22" d="M126.4,137.4c-3.5,3.5-9.2,3.5-12.7,0c-3.5-3.5-3.5-9.2,0-12.7c3.5-3.5,9.2-3.5,12.7,0
	C129.9,128.2,129.9,133.8,126.4,137.4"/>
</svg>
