<?xml version="1.0" encoding="utf-8"?>
<!-- Generator: Adobe Illustrator 24.0.2, SVG Export Plug-In . SVG Version: 6.00 Build 0)  -->
<svg version="1.1" id="layer_1" xmlns="http://www.w3.org/2000/svg" xmlns:xlink="http://www.w3.org/1999/xlink" x="0px" y="0px"
	 viewBox="0 0 240 240" style="enable-background:new 0 0 240 240;" xml:space="preserve">
<style type="text/css">
	.st0{fill-rule:evenodd;clip-rule:evenodd;fill:#FFFFFF;fill-opacity:1.000000e-02;}
	.st1{fill-rule:evenodd;clip-rule:evenodd;fill:url(#Fill-1_1_);}
	.st2{fill-rule:evenodd;clip-rule:evenodd;fill:url(#Fill-2_1_);}
	.st3{fill-rule:evenodd;clip-rule:evenodd;fill:url(#Fill-3_2_);}
	.st4{fill-rule:evenodd;clip-rule:evenodd;fill:url(#Fill-4_4_);}
	.st5{fill-rule:evenodd;clip-rule:evenodd;fill:url(#Fill-5_2_);}
	.st6{fill-rule:evenodd;clip-rule:evenodd;fill:url(#Fill-6_1_);}
	.st7{fill-rule:evenodd;clip-rule:evenodd;fill:url(#Fill-7_2_);}
	.st8{fill-rule:evenodd;clip-rule:evenodd;fill:url(#Fill-8_1_);}
	.st9{fill-rule:evenodd;clip-rule:evenodd;fill:url(#Fill-9_2_);}
	.st10{fill-rule:evenodd;clip-rule:evenodd;fill:url(#Fill-10_1_);}
	.st11{fill-rule:evenodd;clip-rule:evenodd;fill:url(#Fill-11_4_);}
	.st12{fill-rule:evenodd;clip-rule:evenodd;fill:url(#Fill-12_1_);}
	.st13{fill-rule:evenodd;clip-rule:evenodd;fill:url(#Oval_1_);}
	.st14{fill-rule:evenodd;clip-rule:evenodd;fill:url(#Oval_2_);}
	.st15{fill-rule:evenodd;clip-rule:evenodd;fill:url(#Oval_3_);}
	.st16{fill-rule:evenodd;clip-rule:evenodd;fill:url(#Combined-Shape_1_);}
	.st17{fill-rule:evenodd;clip-rule:evenodd;fill:url(#Combined-Shape_4_);}
	.st18{fill-rule:evenodd;clip-rule:evenodd;fill:url(#Oval_4_);}
	.st19{fill-rule:evenodd;clip-rule:evenodd;fill:url(#Fill-1_2_);}
	.st20{fill-rule:evenodd;clip-rule:evenodd;fill:url(#Fill-4_5_);}
	.st21{fill-rule:evenodd;clip-rule:evenodd;fill:url(#Fill-1_3_);}
	.st22{fill-rule:evenodd;clip-rule:evenodd;fill:url(#Fill-4_6_);}
	.st23{fill-rule:evenodd;clip-rule:evenodd;fill:url(#Fill-1_4_);}
	.st24{fill-rule:evenodd;clip-rule:evenodd;fill:url(#Fill-4_7_);}
	.st25{fill-rule:evenodd;clip-rule:evenodd;fill:url(#Fill-11_5_);}
	.st26{fill-rule:evenodd;clip-rule:evenodd;fill:url(#Fill-11_6_);}
	.st27{fill-rule:evenodd;clip-rule:evenodd;fill:url(#Fill-1_5_);}
	.st28{fill-rule:evenodd;clip-rule:evenodd;fill:url(#Fill-3_3_);}
	.st29{fill-rule:evenodd;clip-rule:evenodd;fill:url(#Fill-5_3_);}
	.st30{fill-rule:evenodd;clip-rule:evenodd;fill:url(#Fill-7_3_);}
	.st31{fill-rule:evenodd;clip-rule:evenodd;fill:url(#Fill-9_3_);}
	.st32{fill-rule:evenodd;clip-rule:evenodd;fill:url(#Fill-11_7_);}
	.st33{fill-rule:evenodd;clip-rule:evenodd;fill:url(#Fill-13_2_);}
	.st34{fill-rule:evenodd;clip-rule:evenodd;fill:url(#Fill-1_12_);}
	.st35{fill-rule:evenodd;clip-rule:evenodd;fill:url(#Fill-3_6_);}
	.st36{fill-rule:evenodd;clip-rule:evenodd;fill:url(#Fill-5_6_);}
	.st37{fill-rule:evenodd;clip-rule:evenodd;fill:url(#Fill-7_5_);}
	.st38{fill-rule:evenodd;clip-rule:evenodd;fill:url(#Fill-9_5_);}
	.st39{fill-rule:evenodd;clip-rule:evenodd;fill:url(#Fill-11_9_);}
	.st40{fill-rule:evenodd;clip-rule:evenodd;fill:url(#Fill-13_3_);}
	.st41{fill-rule:evenodd;clip-rule:evenodd;fill:url(#Path-28_1_);}
	.st42{fill-rule:evenodd;clip-rule:evenodd;fill:url(#Oval_5_);}
	.st43{fill-rule:evenodd;clip-rule:evenodd;fill:url(#Mask_1_);}
	.st44{opacity:0.6;fill-rule:evenodd;clip-rule:evenodd;fill:url(#Path_1_);}
	.st45{fill-rule:evenodd;clip-rule:evenodd;fill:url(#Mask_2_);}
	.st46{opacity:0.6;fill-rule:evenodd;clip-rule:evenodd;fill:url(#Path_2_);}
	.st47{fill-rule:evenodd;clip-rule:evenodd;fill:url(#Mask_3_);}
	.st48{opacity:0.6;fill-rule:evenodd;clip-rule:evenodd;fill:url(#Path_3_);}
</style>
<rect id="Rectangle_15_" y="1.7" class="st0" width="238.3" height="238.3"/>
<linearGradient id="Path-28_1_" gradientUnits="userSpaceOnUse" x1="-816.2966" y1="160.2068" x2="-817.2615" y2="160.2068" gradientTransform="matrix(174 0 0 -197.5971 142219 31777.2539)">
	<stop  offset="0" style="stop-color:#69BBFF;stop-opacity:0.5"/>
	<stop  offset="1" style="stop-color:#257AFF;stop-opacity:0"/>
</linearGradient>
<path id="Path-28" class="st41" d="M114.4,4.4L20.3,57.9c-3,1.7-4.8,4.9-4.8,8.3v109.4c0,3.4,1.8,6.6,4.8,8.3l94.1,53.5
	c2.9,1.7,6.5,1.7,9.4,0l94.1-53.5c3-1.7,4.8-4.9,4.8-8.3V66.1c0-3.4-1.8-6.6-4.8-8.3L123.9,4.4C120.9,2.7,117.4,2.7,114.4,4.4z"/>
<linearGradient id="Oval_1_" gradientUnits="userSpaceOnUse" x1="-816.2544" y1="159.3533" x2="-815.0629" y2="159.3533" gradientTransform="matrix(144 0 0 -144 117574 23067.7246)">
	<stop  offset="0" style="stop-color:#69BBFF;stop-opacity:0.5"/>
	<stop  offset="1" style="stop-color:#257AFF;stop-opacity:0"/>
</linearGradient>
<circle id="Oval_6_" class="st13" cx="119.2" cy="120.8" r="85.8"/>
<g id="Group-31" transform="translate(24.000000, 13.000000)">
	<g id="Path-21" transform="translate(0.000000, 47.743590)">

			<linearGradient id="Mask_1_" gradientUnits="userSpaceOnUse" x1="-834.1561" y1="97.6723" x2="-833.7515" y2="98.0747" gradientTransform="matrix(72.1026 0 0 -118.0057 60176.7656 11637.4336)">
			<stop  offset="0" style="stop-color:#69BBFF"/>
			<stop  offset="1" style="stop-color:#257AFF"/>
		</linearGradient>
		<path id="Mask" class="st43" d="M89.8,152.8V65.1c0-1.7-0.9-3.3-2.4-4.1L11,17.6c-2.3-1.3-5.2-0.5-6.5,1.8
			c-0.4,0.7-0.6,1.5-0.6,2.4v87.7c0,1.7,0.9,3.3,2.4,4.1L82.7,157c2.3,1.3,5.2,0.5,6.5-1.8C89.6,154.5,89.8,153.7,89.8,152.8z"/>

			<linearGradient id="Path_1_" gradientUnits="userSpaceOnUse" x1="-828.1388" y1="94.8258" x2="-828.1388" y2="96.0173" gradientTransform="matrix(48.1026 0 0 -71.9502 39896.7656 6941.0044)">
			<stop  offset="0" style="stop-color:#FFFFFF"/>
			<stop  offset="1" style="stop-color:#FFFFFF;stop-opacity:0"/>
		</linearGradient>
		<path id="Path_8_" class="st44" d="M37.3,32.5L87.4,61c1.5,0.8,2.4,2.4,2.4,4.1v53.1c-32.1-2.4-57.3-29.1-57.3-61.8
			C32.5,48,34.2,39.9,37.3,32.5L37.3,32.5z"/>
	</g>
	<g id="Path-21_1_" transform="translate(79.897436, 47.743590)">

			<linearGradient id="Mask_2_" gradientUnits="userSpaceOnUse" x1="-937.3485" y1="98.3922" x2="-936.944" y2="97.2871" gradientTransform="matrix(-72.1026 0 0 -118.0057 -67509.4766 11637.4336)">
			<stop  offset="0" style="stop-color:#69BBFF"/>
			<stop  offset="1" style="stop-color:#257AFF"/>
		</linearGradient>
		<path id="Mask_5_" class="st45" d="M19.2,152.8V65.1c0-1.7,0.9-3.3,2.4-4.1L98,17.6c2.3-1.3,5.2-0.5,6.5,1.8
			c0.4,0.7,0.6,1.5,0.6,2.4v87.7c0,1.7-0.9,3.3-2.4,4.1L26.3,157c-2.3,1.3-5.2,0.5-6.5-1.8C19.4,154.5,19.2,153.7,19.2,152.8z"/>

			<linearGradient id="Path_2_" gradientUnits="userSpaceOnUse" x1="-907.7341" y1="96.0205" x2="-907.8555" y2="94.829" gradientTransform="matrix(48 0 0 -71.8955 43621.0781 6935.4556)">
			<stop  offset="0" style="stop-color:#FFFFFF"/>
			<stop  offset="1" style="stop-color:#FFFFFF;stop-opacity:0"/>
		</linearGradient>
		<path id="Path_7_" class="st46" d="M19.2,118.3V65.1c0-1.7,0.9-3.3,2.4-4.1l50-28.4c3.1,7.4,4.8,15.4,4.8,23.9
			C76.4,89.1,51.2,115.8,19.2,118.3L19.2,118.3z"/>
	</g>
	<g id="Path-27" transform="translate(3.897436, 0.000000)">

			<linearGradient id="Mask_3_" gradientUnits="userSpaceOnUse" x1="-842.6217" y1="143.9672" x2="-843.694" y2="143.9672" gradientTransform="matrix(135.9993 0 0 -80.3477 114767.5156 11620.6357)">
			<stop  offset="0" style="stop-color:#69BBFF"/>
			<stop  offset="1" style="stop-color:#257AFF"/>
		</linearGradient>
		<path id="Mask_4_" class="st47" d="M93.5,100.3l75.7-42.9c2.3-1.3,3.1-4.2,1.8-6.5c-0.4-0.7-1-1.4-1.8-1.8L93.5,6.1
			c-1.8-1-4.1-1-5.9,0L12,49.1c-2.3,1.3-3.1,4.2-1.8,6.5c0.4,0.7,1,1.4,1.8,1.8l75.7,42.9C89.5,101.3,91.7,101.3,93.5,100.3z"/>

			<linearGradient id="Path_3_" gradientUnits="userSpaceOnUse" x1="-840.5021" y1="140.3845" x2="-839.3105" y2="140.3845" gradientTransform="matrix(88.552 0 0 -49.0969 74465.8672 6964.2666)">
			<stop  offset="0" style="stop-color:#FFFFFF"/>
			<stop  offset="1" style="stop-color:#FFFFFF;stop-opacity:0"/>
		</linearGradient>
		<path id="Path_6_" class="st48" d="M37.7,72c10.9-17.6,30.4-29.4,52.7-29.4c22.3,0,41.9,11.8,52.8,29.5l-49.7,28.2
			c-1.8,1-4.1,1-5.9,0L37.7,72L37.7,72z"/>
	</g>
</g>
</svg>
