<?xml version="1.0" encoding="utf-8"?>
<!-- Generator: Adobe Illustrator 24.0.2, SVG Export Plug-In . SVG Version: 6.00 Build 0)  -->
<svg version="1.1" id="layer_1" xmlns="http://www.w3.org/2000/svg" xmlns:xlink="http://www.w3.org/1999/xlink" x="0px" y="0px"
	 viewBox="0 0 240 240" style="enable-background:new 0 0 240 240;" xml:space="preserve">
<style type="text/css">
	.st0{opacity:0.15;fill-rule:evenodd;clip-rule:evenodd;fill:url(#Mask_4_);}
	.st1{opacity:0.15;fill-rule:evenodd;clip-rule:evenodd;fill:url(#Mask_5_);}
	.st2{fill-rule:evenodd;clip-rule:evenodd;fill:url(#Mask_6_);}
	.st3{fill-rule:evenodd;clip-rule:evenodd;fill:url(#Rectangle_2_);}
	.st4{fill-rule:evenodd;clip-rule:evenodd;fill:url(#Rectangle_3_);}
	.st5{fill-rule:evenodd;clip-rule:evenodd;fill:url(#Rectangle_4_);}
	.st6{fill-rule:evenodd;clip-rule:evenodd;fill:url(#Rectangle_12_);}
	.st7{fill-rule:evenodd;clip-rule:evenodd;fill:url(#Rectangle_14_);}
	.st8{fill-rule:evenodd;clip-rule:evenodd;fill:url(#Rectangle_15_);}
	.st9{fill-rule:evenodd;clip-rule:evenodd;fill:url(#Rectangle_18_);}
	.st10{opacity:0.7;fill-rule:evenodd;clip-rule:evenodd;fill:url(#Oval_6_);enable-background:new    ;}
	.st11{opacity:0.7;fill-rule:evenodd;clip-rule:evenodd;fill:url(#Oval_7_);enable-background:new    ;}
	.st12{opacity:0.7;fill-rule:evenodd;clip-rule:evenodd;fill:url(#Oval_8_);enable-background:new    ;}
	.st13{fill-rule:evenodd;clip-rule:evenodd;fill:url(#Mask_7_);}
	.st14{fill-rule:evenodd;clip-rule:evenodd;fill:url(#Fill-1_3_);}
	.st15{fill-rule:evenodd;clip-rule:evenodd;fill:url(#Rectangle_19_);}
	.st16{opacity:0.7;fill-rule:evenodd;clip-rule:evenodd;fill:url(#Oval_9_);enable-background:new    ;}
	.st17{opacity:0.7;fill-rule:evenodd;clip-rule:evenodd;fill:url(#Oval_10_);enable-background:new    ;}
	.st18{opacity:0.7;fill-rule:evenodd;clip-rule:evenodd;fill:url(#Oval_11_);enable-background:new    ;}
	.st19{fill-rule:evenodd;clip-rule:evenodd;fill:#FFFFFF;fill-opacity:8.000000e-02;}
	.st20{opacity:0.25;}
	.st21{fill:none;stroke:#2692FF;stroke-width:4;stroke-linecap:round;stroke-miterlimit:10;}
	.st22{fill-rule:evenodd;clip-rule:evenodd;fill:url(#SVGID_1_);}
	.st23{fill-rule:evenodd;clip-rule:evenodd;fill:url(#SVGID_2_);}
	.st24{fill-rule:evenodd;clip-rule:evenodd;fill:url(#SVGID_3_);}
	.st25{fill-rule:evenodd;clip-rule:evenodd;fill:url(#SVGID_4_);}
	.st26{fill-rule:evenodd;clip-rule:evenodd;fill:url(#SVGID_5_);}
	.st27{fill-rule:evenodd;clip-rule:evenodd;fill:url(#SVGID_6_);}
	.st28{fill-rule:evenodd;clip-rule:evenodd;fill:url(#SVGID_7_);}
	.st29{fill-rule:evenodd;clip-rule:evenodd;fill:url(#SVGID_8_);}
	.st30{fill-rule:evenodd;clip-rule:evenodd;fill:url(#SVGID_9_);}
	.st31{fill-rule:evenodd;clip-rule:evenodd;fill:#FFFFFF;fill-opacity:1.000000e-02;}
	.st32{opacity:0.15;fill-rule:evenodd;clip-rule:evenodd;fill:url(#Oval_23_);}
	.st33{opacity:0.25;fill-rule:evenodd;clip-rule:evenodd;fill:url(#Oval_24_);}
	.st34{fill-rule:evenodd;clip-rule:evenodd;fill:url(#Oval_25_);}
	.st35{fill-rule:evenodd;clip-rule:evenodd;fill:url(#Oval_26_);}
	.st36{fill-rule:evenodd;clip-rule:evenodd;fill:url(#Oval_27_);}
	.st37{fill-rule:evenodd;clip-rule:evenodd;fill:url(#Oval_28_);}
	.st38{fill-rule:evenodd;clip-rule:evenodd;fill:url(#Oval_29_);}
	.st39{fill-rule:evenodd;clip-rule:evenodd;fill:url(#Oval_30_);}
	.st40{fill-rule:evenodd;clip-rule:evenodd;fill:url(#Oval_31_);}
	.st41{fill-rule:evenodd;clip-rule:evenodd;fill:url(#Oval_32_);}
	.st42{fill:url(#Path_6_);}
	.st43{fill:url(#Path_7_);}
	.st44{fill:url(#Path_8_);}
	.st45{fill:url(#Fill-1_4_);}
	.st46{fill-rule:evenodd;clip-rule:evenodd;fill:url(#Combined-Shape_2_);}
	.st47{fill:url(#ic_github_1_);}
	.st48{fill-rule:evenodd;clip-rule:evenodd;fill:#FFFFFF;fill-opacity:0;}
	.st49{fill-rule:evenodd;clip-rule:evenodd;fill:url(#Path_9_);}
	.st50{fill-rule:evenodd;clip-rule:evenodd;fill:url(#Path_10_);}
	.st51{fill-rule:evenodd;clip-rule:evenodd;fill:url(#Path_11_);}
	.st52{fill-rule:evenodd;clip-rule:evenodd;fill:url(#Shape_1_);}
	.st53{fill-rule:evenodd;clip-rule:evenodd;fill:url(#Shape_2_);}
	.st54{fill-rule:evenodd;clip-rule:evenodd;fill:url(#Combined-Shape_3_);}
	.st55{fill-rule:evenodd;clip-rule:evenodd;fill:url(#Oval_33_);}
	.st56{fill-rule:evenodd;clip-rule:evenodd;fill:url(#Fill-1_5_);}
	.st57{fill-rule:evenodd;clip-rule:evenodd;fill:url(#Fill-3_1_);}
	.st58{fill-rule:evenodd;clip-rule:evenodd;fill:url(#Fill-5_1_);}
</style>
<g>
	<path class="st19" d="M0,0h240v240H0V0z"/>
	<g class="st20">
		<path class="st21" d="M202,162v-42h-48"/>
		<path class="st21" d="M77,120h43v50"/>
		<path class="st21" d="M202,38v50"/>
		<path class="st21" d="M120,202h42"/>
		<path class="st21" d="M38,202h50"/>
		<path class="st21" d="M38,120v48"/>
		<path class="st21" d="M120,38v48"/>
		<path class="st21" d="M38,38h50"/>
	</g>

		<linearGradient id="SVGID_1_" gradientUnits="userSpaceOnUse" x1="-462.4413" y1="535.5362" x2="-461.733" y2="534.7128" gradientTransform="matrix(56 0 0 -56 25915 30005.1094)">
		<stop  offset="0" style="stop-color:#69BBFF"/>
		<stop  offset="1" style="stop-color:#257AFF"/>
	</linearGradient>
	<path class="st22" d="M38,10L38,10c15.5,0,28,12.5,28,28l0,0c0,15.5-12.5,28-28,28l0,0c-15.5,0-28-12.5-28-28l0,0
		C10,22.5,22.5,10,38,10z"/>

		<linearGradient id="SVGID_2_" gradientUnits="userSpaceOnUse" x1="-462.587" y1="534.8966" x2="-461.5998" y2="535.3535" gradientTransform="matrix(56 0 0 -56 25915 30169.1094)">
		<stop  offset="0" style="stop-color:#69BBFF"/>
		<stop  offset="1" style="stop-color:#257AFF"/>
	</linearGradient>
	<path class="st23" d="M38,174L38,174c15.5,0,28,12.5,28,28l0,0c0,15.5-12.5,28-28,28l0,0c-15.5,0-28-12.5-28-28l0,0
		C10,186.5,22.5,174,38,174z"/>

		<linearGradient id="SVGID_3_" gradientUnits="userSpaceOnUse" x1="-460.9219" y1="534.6188" x2="-462.0558" y2="534.8254" gradientTransform="matrix(52 0 0 -52 24115 27843.1094)">
		<stop  offset="0" style="stop-color:#69BBFF"/>
		<stop  offset="1" style="stop-color:#257AFF"/>
	</linearGradient>
	<path class="st24" d="M102,12h36c4.4,0,8,3.6,8,8v36c0,4.4-3.6,8-8,8h-36c-4.4,0-8-3.6-8-8V20C94,15.6,97.6,12,102,12z"/>

		<linearGradient id="SVGID_4_" gradientUnits="userSpaceOnUse" x1="-460.0037" y1="543.3132" x2="-460.0037" y2="542.2244" gradientTransform="matrix(36.7696 36.7696 36.7696 -36.7696 -2842.8687 36911.1289)">
		<stop  offset="0" style="stop-color:#69BBFF"/>
		<stop  offset="1" style="stop-color:#257AFF"/>
	</linearGradient>
	<path class="st25" d="M207.7,6.9l25.5,25.5c3.1,3.1,3.1,8.2,0,11.3l-25.5,25.5c-3.1,3.1-8.2,3.1-11.3,0l-25.5-25.5
		c-3.1-3.1-3.1-8.2,0-11.3l25.5-25.5C199.5,3.8,204.5,3.8,207.7,6.9z"/>

		<linearGradient id="SVGID_5_" gradientUnits="userSpaceOnUse" x1="-459.4833" y1="542.7184" x2="-460.6172" y2="542.925" gradientTransform="matrix(36.7696 36.7696 36.7696 -36.7696 -3006.8687 36993.1289)">
		<stop  offset="0" style="stop-color:#69BBFF"/>
		<stop  offset="1" style="stop-color:#257AFF"/>
	</linearGradient>
	<path class="st26" d="M43.7,88.9l25.5,25.5c3.1,3.1,3.1,8.2,0,11.3l-25.5,25.5c-3.1,3.1-8.2,3.1-11.3,0L6.9,125.7
		c-3.1-3.1-3.1-8.2,0-11.3l25.5-25.5C35.5,85.8,40.5,85.8,43.7,88.9z"/>

		<linearGradient id="SVGID_6_" gradientUnits="userSpaceOnUse" x1="-459.4833" y1="542.7184" x2="-460.6172" y2="542.925" gradientTransform="matrix(36.7696 36.7696 36.7696 -36.7696 -2842.8687 37075.1289)">
		<stop  offset="0" style="stop-color:#69BBFF"/>
		<stop  offset="1" style="stop-color:#257AFF"/>
	</linearGradient>
	<path class="st27" d="M207.7,170.9l25.5,25.5c3.1,3.1,3.1,8.2,0,11.3l-25.5,25.5c-3.1,3.1-8.2,3.1-11.3,0l-25.5-25.5
		c-3.1-3.1-3.1-8.2,0-11.3l25.5-25.5C199.5,167.8,204.5,167.8,207.7,170.9z"/>

		<linearGradient id="SVGID_7_" gradientUnits="userSpaceOnUse" x1="-461.7934" y1="534.3166" x2="-461.0129" y2="535.1993" gradientTransform="matrix(52 0 0 -52 24197 27925.1094)">
		<stop  offset="0" style="stop-color:#69BBFF"/>
		<stop  offset="1" style="stop-color:#257AFF"/>
	</linearGradient>
	<path class="st28" d="M184,94h36c4.4,0,8,3.6,8,8v36c0,4.4-3.6,8-8,8h-36c-4.4,0-8-3.6-8-8v-36C176,97.6,179.6,94,184,94z"/>

		<linearGradient id="SVGID_8_" gradientUnits="userSpaceOnUse" x1="-461.9401" y1="534.4833" x2="-460.9528" y2="534.9402" gradientTransform="matrix(52 0 0 -52 24115 28007.1094)">
		<stop  offset="0" style="stop-color:#69BBFF"/>
		<stop  offset="1" style="stop-color:#257AFF"/>
	</linearGradient>
	<path class="st29" d="M102,176h36c4.4,0,8,3.6,8,8v36c0,4.4-3.6,8-8,8h-36c-4.4,0-8-3.6-8-8v-36C94,179.6,97.6,176,102,176z"/>

		<linearGradient id="SVGID_9_" gradientUnits="userSpaceOnUse" x1="-461.7535" y1="534.7362" x2="-462.5232" y2="535.6319" gradientTransform="matrix(56 0 0 -56 25997 30087.1094)">
		<stop  offset="0" style="stop-color:#69BBFF"/>
		<stop  offset="1" style="stop-color:#257AFF"/>
	</linearGradient>
	<path class="st30" d="M120,92L120,92c15.5,0,28,12.5,28,28l0,0c0,15.5-12.5,28-28,28l0,0c-15.5,0-28-12.5-28-28l0,0
		C92,104.5,104.5,92,120,92z"/>
</g>
</svg>
