<?xml version="1.0" encoding="utf-8"?>
<!-- Generator: Adobe Illustrator 24.0.2, SVG Export Plug-In . SVG Version: 6.00 Build 0)  -->
<svg version="1.1" id="layer_1" xmlns="http://www.w3.org/2000/svg" xmlns:xlink="http://www.w3.org/1999/xlink" x="0px" y="0px"
	 viewBox="0 0 240 240" style="enable-background:new 0 0 240 240;" xml:space="preserve">
<style type="text/css">
	.st0{opacity:0.15;fill-rule:evenodd;clip-rule:evenodd;fill:url(#Mask_4_);}
	.st1{opacity:0.15;fill-rule:evenodd;clip-rule:evenodd;fill:url(#Mask_5_);}
	.st2{fill-rule:evenodd;clip-rule:evenodd;fill:url(#Mask_6_);}
	.st3{fill-rule:evenodd;clip-rule:evenodd;fill:url(#Rectangle_2_);}
	.st4{fill-rule:evenodd;clip-rule:evenodd;fill:url(#Rectangle_3_);}
	.st5{fill-rule:evenodd;clip-rule:evenodd;fill:url(#Rectangle_4_);}
	.st6{fill-rule:evenodd;clip-rule:evenodd;fill:url(#Rectangle_12_);}
	.st7{fill-rule:evenodd;clip-rule:evenodd;fill:url(#Rectangle_14_);}
	.st8{fill-rule:evenodd;clip-rule:evenodd;fill:url(#Rectangle_15_);}
	.st9{fill-rule:evenodd;clip-rule:evenodd;fill:url(#Rectangle_18_);}
	.st10{opacity:0.7;fill-rule:evenodd;clip-rule:evenodd;fill:url(#Oval_6_);enable-background:new    ;}
	.st11{opacity:0.7;fill-rule:evenodd;clip-rule:evenodd;fill:url(#Oval_7_);enable-background:new    ;}
	.st12{opacity:0.7;fill-rule:evenodd;clip-rule:evenodd;fill:url(#Oval_8_);enable-background:new    ;}
	.st13{fill-rule:evenodd;clip-rule:evenodd;fill:url(#Mask_7_);}
	.st14{fill-rule:evenodd;clip-rule:evenodd;fill:url(#Fill-1_3_);}
	.st15{fill-rule:evenodd;clip-rule:evenodd;fill:url(#Rectangle_19_);}
	.st16{opacity:0.7;fill-rule:evenodd;clip-rule:evenodd;fill:url(#Oval_9_);enable-background:new    ;}
	.st17{opacity:0.7;fill-rule:evenodd;clip-rule:evenodd;fill:url(#Oval_10_);enable-background:new    ;}
	.st18{opacity:0.7;fill-rule:evenodd;clip-rule:evenodd;fill:url(#Oval_11_);enable-background:new    ;}
	.st19{fill-rule:evenodd;clip-rule:evenodd;fill:#FFFFFF;fill-opacity:8.000000e-02;}
	.st20{opacity:0.25;}
	.st21{fill:none;stroke:#2692FF;stroke-width:4;stroke-linecap:round;stroke-miterlimit:10;}
	.st22{fill-rule:evenodd;clip-rule:evenodd;fill:url(#SVGID_1_);}
	.st23{fill-rule:evenodd;clip-rule:evenodd;fill:url(#SVGID_2_);}
	.st24{fill-rule:evenodd;clip-rule:evenodd;fill:url(#SVGID_3_);}
	.st25{fill-rule:evenodd;clip-rule:evenodd;fill:url(#SVGID_4_);}
	.st26{fill-rule:evenodd;clip-rule:evenodd;fill:url(#SVGID_5_);}
	.st27{fill-rule:evenodd;clip-rule:evenodd;fill:url(#SVGID_6_);}
	.st28{fill-rule:evenodd;clip-rule:evenodd;fill:url(#SVGID_7_);}
	.st29{fill-rule:evenodd;clip-rule:evenodd;fill:url(#SVGID_8_);}
	.st30{fill-rule:evenodd;clip-rule:evenodd;fill:url(#SVGID_9_);}
	.st31{fill-rule:evenodd;clip-rule:evenodd;fill:#FFFFFF;fill-opacity:1.000000e-02;}
	.st32{opacity:0.15;fill-rule:evenodd;clip-rule:evenodd;fill:url(#Oval_23_);}
	.st33{opacity:0.25;fill-rule:evenodd;clip-rule:evenodd;fill:url(#Oval_24_);}
	.st34{fill-rule:evenodd;clip-rule:evenodd;fill:url(#Oval_25_);}
	.st35{fill-rule:evenodd;clip-rule:evenodd;fill:url(#Oval_26_);}
	.st36{fill-rule:evenodd;clip-rule:evenodd;fill:url(#Oval_27_);}
	.st37{fill-rule:evenodd;clip-rule:evenodd;fill:url(#Oval_28_);}
	.st38{fill-rule:evenodd;clip-rule:evenodd;fill:url(#Oval_29_);}
	.st39{fill-rule:evenodd;clip-rule:evenodd;fill:url(#Oval_30_);}
	.st40{fill-rule:evenodd;clip-rule:evenodd;fill:url(#Oval_31_);}
	.st41{fill-rule:evenodd;clip-rule:evenodd;fill:url(#Oval_32_);}
	.st42{fill:url(#Path_6_);}
	.st43{fill:url(#Path_7_);}
	.st44{fill:url(#Path_8_);}
	.st45{fill:url(#Fill-1_4_);}
	.st46{fill-rule:evenodd;clip-rule:evenodd;fill:url(#Combined-Shape_2_);}
	.st47{fill:url(#ic_github_1_);}
	.st48{fill-rule:evenodd;clip-rule:evenodd;fill:#FFFFFF;fill-opacity:0;}
	.st49{fill-rule:evenodd;clip-rule:evenodd;fill:url(#Path_9_);}
	.st50{fill-rule:evenodd;clip-rule:evenodd;fill:url(#Path_10_);}
	.st51{fill-rule:evenodd;clip-rule:evenodd;fill:url(#Path_11_);}
	.st52{fill-rule:evenodd;clip-rule:evenodd;fill:url(#Shape_1_);}
	.st53{fill-rule:evenodd;clip-rule:evenodd;fill:url(#Shape_2_);}
	.st54{fill-rule:evenodd;clip-rule:evenodd;fill:url(#Combined-Shape_3_);}
	.st55{fill-rule:evenodd;clip-rule:evenodd;fill:url(#Oval_33_);}
	.st56{fill-rule:evenodd;clip-rule:evenodd;fill:url(#Fill-1_5_);}
	.st57{fill-rule:evenodd;clip-rule:evenodd;fill:url(#Fill-3_1_);}
	.st58{fill-rule:evenodd;clip-rule:evenodd;fill:url(#Fill-5_1_);}
</style>
<linearGradient id="Mask_4_" gradientUnits="userSpaceOnUse" x1="-176.1246" y1="538.6865" x2="-175.601" y2="538.3315" gradientTransform="matrix(195 0 0 -145.6 34408.3984 78490.1172)">
	<stop  offset="0" style="stop-color:#69BBFF"/>
	<stop  offset="1" style="stop-color:#257AFF"/>
</linearGradient>
<path id="Mask_8_" class="st0" d="M15.6,11.3h150.5c2.7,0,4.9,2.2,4.9,4.9v108.3c0,3.6-2.9,6.6-6.6,6.6H17.3c-3.6,0-6.6-2.9-6.6-6.6
	V16.3C10.7,13.6,12.9,11.3,15.6,11.3z"/>
<linearGradient id="Mask_5_" gradientUnits="userSpaceOnUse" x1="-176.2003" y1="538.848" x2="-175.6735" y2="538.4909" gradientTransform="matrix(195 0 0 -145.6 34491.6016 78622.7109)">
	<stop  offset="0" style="stop-color:#69BBFF"/>
	<stop  offset="1" style="stop-color:#257AFF"/>
</linearGradient>
<path id="Mask_3_" class="st1" d="M84.1,120.4h150.5c2.7,0,4.9,2.2,4.9,4.9v108.3c0,3.6-2.9,6.6-6.6,6.6H85.7
	c-3.6,0-6.6-2.9-6.6-6.6V125.4C79.1,122.6,81.3,120.4,84.1,120.4z"/>
<g id="Group-17_4_" transform="translate(57.400000, 8.400000)">

		<linearGradient id="Mask_6_" gradientUnits="userSpaceOnUse" x1="-232.9632" y1="529.9474" x2="-233.7859" y2="530.4061" gradientTransform="matrix(195 0 0 -145.6 45531 77245.6719)">
		<stop  offset="0" style="stop-color:#69BBFF"/>
		<stop  offset="1" style="stop-color:#257AFF"/>
	</linearGradient>
	<path id="Mask_2_" class="st2" d="M-52.5-7.7H98.1c2.7,0,4.9,2.2,4.9,4.9v108.3c0,3.6-2.9,6.6-6.6,6.6H-50.8
		c-3.6,0-6.6-2.9-6.6-6.6V-2.8C-57.4-5.5-55.2-7.7-52.5-7.7z"/>

		<linearGradient id="Rectangle_2_" gradientUnits="userSpaceOnUse" x1="-232.4259" y1="528.6747" x2="-231.8215" y2="527.8521" gradientTransform="matrix(62.4 0 0 -72.8 14467.7607 38513.9922)">
		<stop  offset="0" style="stop-color:#FFFFFF;stop-opacity:0.2"/>
		<stop  offset="1" style="stop-color:#FFFFFF;stop-opacity:0.9"/>
	</linearGradient>
	<path id="Rectangle_13_" class="st3" d="M-39.1,26.5H5.6c1.8,0,3.3,1.5,3.3,3.3v53.3c0,1.8-1.5,3.3-3.3,3.3h-44.8
		c-1.8,0-3.3-1.5-3.3-3.3V29.8C-42.4,27.9-41,26.5-39.1,26.5z"/>

		<linearGradient id="Rectangle_3_" gradientUnits="userSpaceOnUse" x1="-233.128" y1="495.7925" x2="-232.305" y2="495.7849" gradientTransform="matrix(80.6 0 0 -7.8 18811.8398 3905.3904)">
		<stop  offset="0" style="stop-color:#FFFFFF;stop-opacity:0.8"/>
		<stop  offset="1" style="stop-color:#FFFFFF;stop-opacity:0.2"/>
	</linearGradient>
	<path id="Rectangle_10_" class="st4" d="M24.9,35h59.9c1.8,0,3.2,1.4,3.2,3.2v0c0,1.8-1.4,3.2-3.2,3.2H24.9c-1.8,0-3.2-1.4-3.2-3.2
		v0C21.7,36.5,23.2,35,24.9,35z"/>

		<linearGradient id="Rectangle_4_" gradientUnits="userSpaceOnUse" x1="-232.3249" y1="496.1537" x2="-231.5022" y2="496.1332" gradientTransform="matrix(49.4 0 0 -7.8 11498.5605 3920.9902)">
		<stop  offset="0" style="stop-color:#FFFFFF;stop-opacity:0.8"/>
		<stop  offset="1" style="stop-color:#FFFFFF;stop-opacity:0.2"/>
	</linearGradient>
	<path id="Rectangle_9_" class="st5" d="M24.9,47.9h34.2c1.8,0,3.2,1.4,3.2,3.2l0,0c0,1.8-1.4,3.2-3.2,3.2H24.9
		c-1.8,0-3.2-1.4-3.2-3.2l0,0C21.7,49.3,23.2,47.9,24.9,47.9z"/>

		<linearGradient id="Rectangle_12_" gradientUnits="userSpaceOnUse" x1="-224.5406" y1="505.9651" x2="-223.7179" y2="505.1425" gradientTransform="matrix(10.4 0 0 -10.4 2356.96 5329.1499)">
		<stop  offset="0" style="stop-color:#FFFFFF"/>
		<stop  offset="1" style="stop-color:#FFFFFF;stop-opacity:0.5"/>
	</linearGradient>
	<path id="Rectangle_8_" class="st6" d="M25.9,67.1h0.3c2.3,0,4.1,1.8,4.1,4.1v0.3c0,2.3-1.8,4.1-4.1,4.1h-0.3
		c-2.3,0-4.1-1.8-4.1-4.1v-0.3C21.7,69,23.6,67.1,25.9,67.1z"/>

		<linearGradient id="Rectangle_14_" gradientUnits="userSpaceOnUse" x1="-224.8066" y1="505.9651" x2="-223.984" y2="505.1425" gradientTransform="matrix(10.4 0 0 -10.4 2372.5598 5329.1499)">
		<stop  offset="0" style="stop-color:#FFFFFF;stop-opacity:0.5"/>
		<stop  offset="1" style="stop-color:#FFFFFF"/>
	</linearGradient>
	<path id="Rectangle_7_" class="st7" d="M38.7,67.1H39c2.3,0,4.1,1.8,4.1,4.1v0.3c0,2.3-1.8,4.1-4.1,4.1h-0.3
		c-2.3,0-4.1-1.8-4.1-4.1v-0.3C34.6,69,36.4,67.1,38.7,67.1z"/>

		<linearGradient id="Rectangle_15_" gradientUnits="userSpaceOnUse" x1="-232.3371" y1="510.8948" x2="-231.5145" y2="510.8313" gradientTransform="matrix(46.8 0 0 -13 10922.9199 6712.6104)">
		<stop  offset="0" style="stop-color:#FFFFFF"/>
		<stop  offset="1" style="stop-color:#FFFFFF;stop-opacity:0.5"/>
	</linearGradient>
	<path id="Rectangle_6_" class="st8" d="M53.7,66h30.3c2.3,0,4.1,1.8,4.1,4.1v2.5c0,2.3-1.8,4.1-4.1,4.1H53.7
		c-2.3,0-4.1-1.8-4.1-4.1v-2.5C49.5,67.9,51.4,66,53.7,66z"/>

		<linearGradient id="Rectangle_18_" gradientUnits="userSpaceOnUse" x1="-233.7947" y1="509.6374" x2="-232.9559" y2="509.641" gradientTransform="matrix(195 0 0 -13 45531 6622.9102)">
		<stop  offset="0" style="stop-color:#69BBFF"/>
		<stop  offset="1" style="stop-color:#257AFF"/>
	</linearGradient>
	<path id="Rectangle_5_" class="st9" d="M-52.5-7.7H98.1c2.7,0,4.9,2.2,4.9,4.9v5.8H-57.4v-5.8C-57.4-5.5-55.2-7.7-52.5-7.7z"/>

		<linearGradient id="Oval_6_" gradientUnits="userSpaceOnUse" x1="-211.5814" y1="476.3716" x2="-210.7588" y2="475.5328" gradientTransform="matrix(5.2 0 0 -5.2 1047.08 2472.53)">
		<stop  offset="0" style="stop-color:#FFFFFF;stop-opacity:0"/>
		<stop  offset="1" style="stop-color:#FFFAF5"/>
	</linearGradient>
	<circle id="Oval_12_" class="st10" cx="-51" cy="-2.4" r="2.1"/>

		<linearGradient id="Oval_7_" gradientUnits="userSpaceOnUse" x1="-211.8918" y1="476.3716" x2="-211.0691" y2="475.5328" gradientTransform="matrix(5.2 0 0 -5.2 1056.1799 2472.53)">
		<stop  offset="0" style="stop-color:#FFFFFF;stop-opacity:0"/>
		<stop  offset="1" style="stop-color:#FFFAF5"/>
	</linearGradient>
	<circle id="Oval_5_" class="st11" cx="-43.5" cy="-2.4" r="2.1"/>

		<linearGradient id="Oval_8_" gradientUnits="userSpaceOnUse" x1="-212.2021" y1="476.3716" x2="-211.3795" y2="475.5328" gradientTransform="matrix(5.2 0 0 -5.2 1065.2799 2472.53)">
		<stop  offset="0" style="stop-color:#FFFFFF;stop-opacity:0"/>
		<stop  offset="1" style="stop-color:#FFFAF5"/>
	</linearGradient>
	<circle id="Oval_4_" class="st12" cx="-36" cy="-2.4" r="2.1"/>
</g>
<g id="Group-17_1_" transform="translate(140.600000, 141.000000)">

		<linearGradient id="Mask_7_" gradientUnits="userSpaceOnUse" x1="-316.2389" y1="397.509" x2="-317.0616" y2="397.9676" gradientTransform="matrix(195 0 0 -145.6 61755 57939.1133)">
		<stop  offset="0" style="stop-color:#69BBFF"/>
		<stop  offset="1" style="stop-color:#257AFF"/>
	</linearGradient>
	<path id="Mask_1_" class="st13" d="M-67.2-31.3H83.3c2.7,0,4.9,2.2,4.9,4.9V81.9c0,3.6-2.9,6.6-6.6,6.6H-65.6
		c-3.6,0-6.6-2.9-6.6-6.6V-26.3C-72.2-29.1-69.9-31.3-67.2-31.3z"/>

		<linearGradient id="Fill-1_3_" gradientUnits="userSpaceOnUse" x1="-316.8878" y1="396.7721" x2="-316.0651" y2="396.446" gradientTransform="matrix(140.4 0 0 -88.4 44441.3398 35094.207)">
		<stop  offset="0" style="stop-color:#FFFFFF;stop-opacity:0.9"/>
		<stop  offset="1" style="stop-color:#FFFFFF;stop-opacity:0.4"/>
	</linearGradient>
	<path id="Fill-1_1_" class="st14" d="M61.5,63.9c0,1.2-1,2.1-2.1,2.1H38V53.2h23.5V63.9z M10.2,66.1h23.5V53.2H10.2V66.1z
		 M-17.6,66.1H5.9V53.2h-23.5V66.1z M-45.4,63.9V53.2h23.5v12.8h-21.4C-44.5,66.1-45.4,65.1-45.4,63.9L-45.4,63.9z M-45.4,4
		c0-1.2,1-2.1,2.1-2.1h21.4v12.8h-23.5V4z M-17.6,14.7H5.9V1.9h-23.5V14.7z M10.2,14.7h23.5V1.9H10.2V14.7z M61.5,4v10.7H38V1.9
		h21.4C60.6,1.9,61.5,2.8,61.5,4L61.5,4z M38,48.9h23.5V36.1H38V48.9z M10.2,48.9h23.5V36.1H10.2V48.9z M-17.6,48.9H5.9V36.1h-23.5
		V48.9z M-45.4,48.9h23.5V36.1h-23.5V48.9z M-45.4,31.8h23.5V19h-23.5V31.8z M-17.6,31.8H5.9V19h-23.5V31.8z M10.2,31.8h23.5V19
		H10.2V31.8z M38,31.8h23.5V19H38V31.8z M59.4-2.4H35.9H8.1h-27.8h-23.5c-3.5,0-6.4,2.9-6.4,6.4v12.8V34v17.1v12.8
		c0,3.5,2.9,6.4,6.4,6.4h23.5H8.1h27.8h23.5c3.5,0,6.4-2.9,6.4-6.4V51.1V34V16.9V4C65.8,0.5,62.9-2.4,59.4-2.4L59.4-2.4z"/>

		<linearGradient id="Rectangle_19_" gradientUnits="userSpaceOnUse" x1="-317.0704" y1="378.8464" x2="-316.2316" y2="378.8501" gradientTransform="matrix(195 0 0 -13 61755 4899.1104)">
		<stop  offset="0" style="stop-color:#69BBFF"/>
		<stop  offset="1" style="stop-color:#257AFF"/>
	</linearGradient>
	<path id="Rectangle_1_" class="st15" d="M-67.2-31.3H83.3c2.7,0,4.9,2.2,4.9,4.9v5.8H-72.2v-5.8C-72.2-29.1-69.9-31.3-67.2-31.3z"
		/>

		<linearGradient id="Oval_9_" gradientUnits="userSpaceOnUse" x1="-297.6191" y1="348.2943" x2="-296.7965" y2="347.4555" gradientTransform="matrix(5.2 0 0 -5.2 1479.72 1783.0101)">
		<stop  offset="0" style="stop-color:#FFFFFF;stop-opacity:0"/>
		<stop  offset="1" style="stop-color:#FFFAF5"/>
	</linearGradient>
	<circle id="Oval_3_" class="st16" cx="-65.7" cy="-25.9" r="2.1"/>

		<linearGradient id="Oval_10_" gradientUnits="userSpaceOnUse" x1="-297.9295" y1="348.2943" x2="-297.1069" y2="347.4555" gradientTransform="matrix(5.2 0 0 -5.2 1488.8199 1783.0101)">
		<stop  offset="0" style="stop-color:#FFFFFF;stop-opacity:0"/>
		<stop  offset="1" style="stop-color:#FFFAF5"/>
	</linearGradient>
	<circle id="Oval_2_" class="st17" cx="-58.3" cy="-25.9" r="2.1"/>

		<linearGradient id="Oval_11_" gradientUnits="userSpaceOnUse" x1="-298.2399" y1="348.2943" x2="-297.4172" y2="347.4555" gradientTransform="matrix(5.2 0 0 -5.2 1497.9199 1783.0101)">
		<stop  offset="0" style="stop-color:#FFFFFF;stop-opacity:0"/>
		<stop  offset="1" style="stop-color:#FFFAF5"/>
	</linearGradient>
	<circle id="Oval_1_" class="st18" cx="-50.8" cy="-25.9" r="2.1"/>
</g>
</svg>
