<?xml version="1.0" encoding="utf-8"?>
<!-- Generator: Adobe Illustrator 24.0.2, SVG Export Plug-In . SVG Version: 6.00 Build 0)  -->
<svg version="1.1" id="layer_1" xmlns="http://www.w3.org/2000/svg" xmlns:xlink="http://www.w3.org/1999/xlink" x="0px" y="0px"
	 viewBox="0 0 48 48" style="enable-background:new 0 0 48 48;" xml:space="preserve">
<style type="text/css">
	.st0{fill-rule:evenodd;clip-rule:evenodd;fill:#FFFFFF;}
	.st1{fill-rule:evenodd;clip-rule:evenodd;fill:url(#SVGID_1_);}
	.st2{fill-rule:evenodd;clip-rule:evenodd;fill:url(#SVGID_2_);}
	.st3{fill-rule:evenodd;clip-rule:evenodd;fill:url(#SVGID_3_);}
	.st4{fill-rule:evenodd;clip-rule:evenodd;fill:url(#SVGID_4_);}
	.st5{fill-rule:evenodd;clip-rule:evenodd;fill:url(#SVGID_5_);}
	.st6{fill-rule:evenodd;clip-rule:evenodd;fill:url(#SVGID_6_);}
	.st7{fill-rule:evenodd;clip-rule:evenodd;fill:url(#SVGID_7_);}
	.st8{fill-rule:evenodd;clip-rule:evenodd;fill:url(#SVGID_8_);}
	.st9{fill-rule:evenodd;clip-rule:evenodd;fill:url(#SVGID_9_);}
	.st10{fill-rule:evenodd;clip-rule:evenodd;fill:url(#SVGID_10_);}
	.st11{fill-rule:evenodd;clip-rule:evenodd;fill:url(#SVGID_11_);}
	.st12{fill-rule:evenodd;clip-rule:evenodd;fill:url(#SVGID_12_);}
	.st13{fill-rule:evenodd;clip-rule:evenodd;fill:url(#SVGID_13_);}
	.st14{fill-rule:evenodd;clip-rule:evenodd;fill:url(#SVGID_14_);}
	.st15{fill-rule:evenodd;clip-rule:evenodd;fill:url(#SVGID_15_);}
	.st16{fill-rule:evenodd;clip-rule:evenodd;fill:url(#SVGID_16_);}
	.st17{fill-rule:evenodd;clip-rule:evenodd;fill:url(#SVGID_17_);}
</style>
<g>
	<path class="st0" d="M0,0h48v48H0V0z"/>

		<linearGradient id="SVGID_1_" gradientUnits="userSpaceOnUse" x1="-503.8093" y1="226.7126" x2="-502.8093" y2="226.3962" gradientTransform="matrix(18.3848 -18.3848 -10.3414 -10.3414 11628.1631 -6881.3721)">
		<stop  offset="0" style="stop-color:#69BBFF"/>
		<stop  offset="1" style="stop-color:#257AFF"/>
	</linearGradient>
	<path class="st1" d="M27.5,34.5L41,21c0.8-0.8,2-0.8,2.8,0l0.6,0.6c0.8,0.8,0.8,2,0,2.8L28.9,40c-0.8,0.8-2,0.8-2.8,0l-7.5-7.5
		c-0.8-0.8-0.8-2,0-2.8l0.6-0.6c0.8-0.8,2-0.8,2.8,0L27.5,34.5z"/>

		<linearGradient id="SVGID_2_" gradientUnits="userSpaceOnUse" x1="-494.9769" y1="260.7571" x2="-494.3665" y2="259.7571" gradientTransform="matrix(37.5 0 0 -48 18567.3906 12517.5508)">
		<stop  offset="0" style="stop-color:#69BBFF"/>
		<stop  offset="1" style="stop-color:#257AFF"/>
	</linearGradient>
	<path class="st2" d="M4,0h21.5l12,12v32c0,2.2-1.8,4-4,4H4c-2.2,0-4-1.8-4-4V4C0,1.8,1.8,0,4,0z"/>

		<linearGradient id="SVGID_3_" gradientUnits="userSpaceOnUse" x1="-482.5724" y1="247.1768" x2="-481.5724" y2="246.4987" gradientTransform="matrix(19.5271 0 0 -16.0796 9442.6152 3999.8916)">
		<stop  offset="0" style="stop-color:#FFFFFF"/>
		<stop  offset="1" style="stop-color:#FFFFFF;stop-opacity:0.6"/>
	</linearGradient>
	<path class="st3" d="M37.5,24.5v6.9l-8,8L28.9,40c-0.8,0.8-2,0.8-2.8,0l-7.5-7.5c-0.8-0.8-0.8-2,0-2.8c0,0,0,0,0,0l0.6-0.6
		c0.8-0.8,2-0.8,2.8,0l5.5,5.5L37.5,24.5L37.5,24.5z"/>

		<linearGradient id="SVGID_4_" gradientUnits="userSpaceOnUse" x1="-466.5055" y1="240.1019" x2="-465.5055" y2="239.1019" gradientTransform="matrix(12 0 0 -12 5621.1523 2883.6375)">
		<stop  offset="0" style="stop-color:#FFFFFF"/>
		<stop  offset="1" style="stop-color:#FFFFFF;stop-opacity:0.6"/>
	</linearGradient>
	<path class="st4" d="M25.5,0v8c0,2.2,1.8,4,4,4h8L25.5,0z"/>
</g>
</svg>
