<?xml version="1.0" encoding="utf-8"?>
<!-- Generator: Adobe Illustrator 24.0.2, SVG Export Plug-In . SVG Version: 6.00 Build 0)  -->
<svg version="1.1" id="layer_1" xmlns="http://www.w3.org/2000/svg" xmlns:xlink="http://www.w3.org/1999/xlink" x="0px" y="0px"
	 viewBox="0 0 48 48" style="enable-background:new 0 0 48 48;" xml:space="preserve">
<style type="text/css">
	.st0{fill-rule:evenodd;clip-rule:evenodd;fill:#FFFFFF;}
	.st1{fill-rule:evenodd;clip-rule:evenodd;fill:url(#SVGID_1_);}
	.st2{fill-rule:evenodd;clip-rule:evenodd;fill:url(#SVGID_2_);}
	.st3{fill-rule:evenodd;clip-rule:evenodd;fill:url(#SVGID_3_);}
	.st4{fill-rule:evenodd;clip-rule:evenodd;fill:url(#SVGID_4_);}
	.st5{fill-rule:evenodd;clip-rule:evenodd;fill:url(#SVGID_5_);}
	.st6{fill-rule:evenodd;clip-rule:evenodd;fill:url(#SVGID_6_);}
	.st7{fill-rule:evenodd;clip-rule:evenodd;fill:url(#SVGID_7_);}
	.st8{fill-rule:evenodd;clip-rule:evenodd;fill:url(#SVGID_8_);}
	.st9{fill-rule:evenodd;clip-rule:evenodd;fill:url(#SVGID_9_);}
	.st10{fill-rule:evenodd;clip-rule:evenodd;fill:url(#SVGID_10_);}
	.st11{fill-rule:evenodd;clip-rule:evenodd;fill:url(#SVGID_11_);}
	.st12{fill-rule:evenodd;clip-rule:evenodd;fill:url(#SVGID_12_);}
	.st13{fill-rule:evenodd;clip-rule:evenodd;fill:url(#SVGID_13_);}
	.st14{fill-rule:evenodd;clip-rule:evenodd;fill:url(#SVGID_14_);}
	.st15{fill-rule:evenodd;clip-rule:evenodd;fill:url(#SVGID_15_);}
	.st16{fill-rule:evenodd;clip-rule:evenodd;fill:url(#SVGID_16_);}
	.st17{fill-rule:evenodd;clip-rule:evenodd;fill:url(#SVGID_17_);}
</style>
<g>
	<path class="st0" d="M0,0h48v48H0V0z"/>

		<linearGradient id="SVGID_1_" gradientUnits="userSpaceOnUse" x1="-441.9239" y1="315.3068" x2="-442.9239" y2="316.3068" gradientTransform="matrix(48 0 0 -48 21260.3477 15182.7246)">
		<stop  offset="0" style="stop-color:#69BBFF"/>
		<stop  offset="1" style="stop-color:#257AFF"/>
	</linearGradient>
	<path class="st1" d="M14.9,8.5c1.4-0.9,3-1.5,4.6-1.9V2c0-1.1,0.9-2,2-2h5c1.1,0,2,0.9,2,2v4.6c1.6,0.4,3.2,1.1,4.6,1.9l3.2-3.2
		c0.8-0.8,2-0.8,2.8,0c0,0,0,0,0,0l3.5,3.5c0.8,0.8,0.8,2,0,2.8c0,0,0,0,0,0l-3.2,3.2c0.9,1.4,1.5,3,1.9,4.6H46c1.1,0,2,0.9,2,2v5
		c0,1.1-0.9,2-2,2h-4.6c-0.4,1.6-1.1,3.2-1.9,4.6l3.2,3.2c0.8,0.8,0.8,2,0,2.8c0,0,0,0,0,0l-3.5,3.5c-0.8,0.8-2,0.8-2.8,0
		c0,0,0,0,0,0l-3.2-3.2c-1.4,0.9-3,1.5-4.6,1.9V46c0,1.1-0.9,2-2,2h-5c-1.1,0-2-0.9-2-2v-4.6c-1.6-0.4-3.2-1.1-4.6-1.9l-3.2,3.2
		c-0.8,0.8-2,0.8-2.8,0c0,0,0,0,0,0l-3.5-3.5c-0.8-0.8-0.8-2,0-2.8c0,0,0,0,0,0l3.2-3.2c-0.9-1.4-1.5-3-1.9-4.6H2c-1.1,0-2-0.9-2-2
		v-5c0-1.1,0.9-2,2-2h4.6c0.4-1.6,1.1-3.2,1.9-4.6l-3.2-3.2c-0.8-0.8-0.8-2,0-2.8c0,0,0,0,0,0l3.5-3.5c0.8-0.8,2-0.8,2.8,0
		c0,0,0,0,0,0L14.9,8.5z"/>
	<circle class="st0" cx="24" cy="24" r="9"/>
</g>
</svg>
