<?xml version="1.0" encoding="utf-8"?>
<!-- Generator: Adobe Illustrator 24.0.2, SVG Export Plug-In . SVG Version: 6.00 Build 0)  -->
<svg version="1.1" id="layer_1" xmlns="http://www.w3.org/2000/svg" xmlns:xlink="http://www.w3.org/1999/xlink" x="0px" y="0px"
	 viewBox="0 0 48 48" style="enable-background:new 0 0 48 48;" xml:space="preserve">
<style type="text/css">
	.st0{fill-rule:evenodd;clip-rule:evenodd;fill:#FFFFFF;}
	.st1{fill-rule:evenodd;clip-rule:evenodd;fill:url(#SVGID_1_);}
	.st2{fill-rule:evenodd;clip-rule:evenodd;fill:url(#SVGID_2_);}
	.st3{fill-rule:evenodd;clip-rule:evenodd;fill:url(#SVGID_3_);}
	.st4{fill-rule:evenodd;clip-rule:evenodd;fill:url(#SVGID_4_);}
	.st5{fill-rule:evenodd;clip-rule:evenodd;fill:url(#SVGID_5_);}
	.st6{fill-rule:evenodd;clip-rule:evenodd;fill:url(#SVGID_6_);}
	.st7{fill-rule:evenodd;clip-rule:evenodd;fill:url(#SVGID_7_);}
	.st8{fill-rule:evenodd;clip-rule:evenodd;fill:url(#SVGID_8_);}
	.st9{fill-rule:evenodd;clip-rule:evenodd;fill:url(#SVGID_9_);}
	.st10{fill-rule:evenodd;clip-rule:evenodd;fill:url(#SVGID_10_);}
	.st11{fill-rule:evenodd;clip-rule:evenodd;fill:url(#SVGID_11_);}
	.st12{fill-rule:evenodd;clip-rule:evenodd;fill:url(#SVGID_12_);}
	.st13{fill-rule:evenodd;clip-rule:evenodd;fill:url(#SVGID_13_);}
	.st14{fill-rule:evenodd;clip-rule:evenodd;fill:url(#SVGID_14_);}
	.st15{fill-rule:evenodd;clip-rule:evenodd;fill:url(#SVGID_15_);}
	.st16{fill-rule:evenodd;clip-rule:evenodd;fill:url(#SVGID_16_);}
	.st17{fill-rule:evenodd;clip-rule:evenodd;fill:url(#SVGID_17_);}
</style>
<g>
	<path class="st0" d="M0,0h48v48H0V0z"/>

		<linearGradient id="SVGID_1_" gradientUnits="userSpaceOnUse" x1="-437.3496" y1="260.7804" x2="-436.9392" y2="259.7804" gradientTransform="matrix(30.7534 0 0 -48.0026 13458.9014 12518.251)">
		<stop  offset="0" style="stop-color:#69BBFF"/>
		<stop  offset="1" style="stop-color:#257AFF"/>
	</linearGradient>
	<path class="st1" d="M24.8,34.5c3.7,0.4,6.4,3.8,6,7.5c-0.4,3.7-3.8,6.4-7.5,6c-3.7-0.4-6.4-3.8-6-7.5c0.4-3.1,2.8-5.6,6-6v-3.1
		c-3.1-0.4-5.6-2.8-6-6h-3.8c-0.4,3.7-3.8,6.4-7.5,6C2.3,31-0.4,27.7,0,24c0.4-3.1,2.8-5.6,6-6v-4.6C2.3,13-0.4,9.7,0,6
		s3.8-6.4,7.5-6s6.4,3.8,6,7.5c-0.4,3.1-2.8,5.6-6,6V18c3.1,0.4,5.6,2.8,6,6h3.8c0.4-3.7,3.8-6.4,7.5-6c3.7,0.4,6.4,3.8,6,7.5
		c-0.4,3.1-2.8,5.6-6,6V34.5z"/>

		<linearGradient id="SVGID_2_" gradientUnits="userSpaceOnUse" x1="-418.8405" y1="242.3371" x2="-417.8474" y2="243.3302" gradientTransform="matrix(13.5 0 0 -13.5 5654.3477 3319.5505)">
		<stop  offset="0" style="stop-color:#69BBFF"/>
		<stop  offset="1" style="stop-color:#257AFF"/>
	</linearGradient>
	<circle class="st2" cx="6.8" cy="41.2" r="6.8"/>

		<linearGradient id="SVGID_3_" gradientUnits="userSpaceOnUse" x1="-417.8405" y1="243.3371" x2="-418.8405" y2="242.3371" gradientTransform="matrix(13.5 0 0 -13.5 5688.8477 3319.5505)">
		<stop  offset="0" style="stop-color:#69BBFF"/>
		<stop  offset="1" style="stop-color:#257AFF"/>
	</linearGradient>
	<circle class="st3" cx="41.3" cy="41.2" r="6.8"/>

		<linearGradient id="SVGID_4_" gradientUnits="userSpaceOnUse" x1="-418.8405" y1="243.3371" x2="-417.8405" y2="242.3371" gradientTransform="matrix(13.5 0 0 -13.5 5688.8477 3285.0505)">
		<stop  offset="0" style="stop-color:#69BBFF"/>
		<stop  offset="1" style="stop-color:#257AFF"/>
	</linearGradient>
	<circle class="st4" cx="41.3" cy="6.7" r="6.8"/>

		<linearGradient id="SVGID_5_" gradientUnits="userSpaceOnUse" x1="-417.8405" y1="242.3371" x2="-418.8265" y2="243.3231" gradientTransform="matrix(13.5 0 0 -13.5 5688.8477 3303.0505)">
		<stop  offset="0" style="stop-color:#69BBFF"/>
		<stop  offset="1" style="stop-color:#257AFF"/>
	</linearGradient>
	<circle class="st5" cx="41.3" cy="24.7" r="6.8"/>

		<linearGradient id="SVGID_6_" gradientUnits="userSpaceOnUse" x1="-417.8405" y1="242.3371" x2="-418.8393" y2="243.3359" gradientTransform="matrix(13.5 0 0 -13.5 5671.5977 3285.0505)">
		<stop  offset="0" style="stop-color:#69BBFF"/>
		<stop  offset="1" style="stop-color:#257AFF"/>
	</linearGradient>
	<circle class="st6" cx="24" cy="6.7" r="6.8"/>
</g>
</svg>
