<svg id="layer_1" data-name="layer 1" xmlns="http://www.w3.org/2000/svg" viewBox="0 0 151.97 34.49"><defs><style>.cls-1{fill:#003365;}</style></defs><title>logo_trigema</title><g id="Trigema"><path class="cls-1" d="M77,22.24V19.33H72.22V34.79H77.6V28.52c0-2.36.9-3.48,3.14-3.48a3.86,3.86,0,0,1,1.11.12V19h-.44C79.06,18.88,77.82,19.78,77,22.24Z" transform="translate(-15 -7.24)"/><path class="cls-1" d="M67.52,29V22.8H70.1V19.11H67.52V14.29H62.26v4.82H60.35V22.8h1.91v7.73c0,3.36,1.23,4.48,4.59,4.48,1,0,2-.11,3.25-.22V30.31a2,2,0,0,1-.79.11C67.86,30.53,67.52,30.08,67.52,29Z" transform="translate(-15 -7.24)"/><path class="cls-1" d="M116.35,18.77h0c-4.82,0-7.84,3.25-7.84,8.4,0,4.82,2.8,8.18,7.5,8.18h.23c4-.11,6.49-1.79,7.28-5.15h-5.16a1.9,1.9,0,0,1-2,1.34h-.11c-1.46-.11-2.24-1.23-2.36-3.14H124v-.33C124,22.24,121.05,18.77,116.35,18.77Zm-.11,6.61h-2.36c.12-1.79.9-2.8,2.36-2.8h0c1.56,0,2.24.9,2.35,2.8Z" transform="translate(-15 -7.24)"/><path class="cls-1" d="M144.46,18.88a5.48,5.48,0,0,0-4.82,2.69c-1.12-1.79-2.24-2.69-3.92-2.69a5.13,5.13,0,0,0-4.59,2.69V19.33h-4.81V34.79h5.26V26.5c0-1.79.67-2.69,1.79-2.69,1.34,0,1.79.9,1.79,2.91v8.07h5.15V26.61c0-1.9.56-2.8,1.91-2.8s1.79.79,1.79,2.8v8.18h5.26V24.26C149.39,20.9,147.59,18.88,144.46,18.88Z" transform="translate(-15 -7.24)"/><path class="cls-1" d="M166.52,33.11V24.37A5,5,0,0,0,164.73,20a9.39,9.39,0,0,0-5.27-1.34h-.33c-4.48.11-6.94,1.79-6.94,5.26h5.15A1.5,1.5,0,0,1,159,22.36h.11c1.34,0,1.9.44,1.9,1.34,0,1.12-.56,1.23-2,1.46a6.76,6.76,0,0,1-1.57.22c-3.92.56-5.82,1.57-5.82,4.82s1.67,4.92,4.81,4.92a6.72,6.72,0,0,0,2.69-.56A5.57,5.57,0,0,0,161.26,33l.33,1.56H167v-.44C166.74,34.12,166.52,33.56,166.52,33.11Zm-5.26-4.26c0,1.68-.56,2.69-2,2.8-.11,0-.45.11-.56.11a1.39,1.39,0,0,1-1.57-1.45c0-.9.79-1.23,2-1.57.56-.22,1.23-.45,2-.67C161.26,28.07,161.26,28.4,161.26,28.85Z" transform="translate(-15 -7.24)"/><rect class="cls-1" x="68.76" y="6.05" width="5.38" height="4.48"/><path class="cls-1" d="M101.79,21.35a5.24,5.24,0,0,0-2.69-2.24,4.52,4.52,0,0,0-1.79-.23c-3.36,0-5.82,3.14-5.82,8.29C91.49,32,93.84,35,97.42,35A6.76,6.76,0,0,0,99,34.79a4.62,4.62,0,0,0,2.24-1.35v.79c0,2.35-.22,3.25-1.9,3.25H99.1c-.78-.12-1.23-.34-1.34-1H92.49c.45,2.8,2.69,4.7,6.5,4.7h.22c5.27,0,7.28-2.13,7.28-7.5V19.33h-4.81v2ZM99,30.53h0c-1.57,0-2.24-1.23-2.24-3.69s.67-3.59,2.13-3.59H99c1.34.11,2.24,1.35,2.24,3.59C101.34,29.41,100.67,30.53,99,30.53Z" transform="translate(-15 -7.24)"/><rect class="cls-1" x="68.76" y="12.09" width="5.38" height="15.45"/><path class="cls-1" d="M42.43,27.84h0l-3.8-6.72,3.92-6.94L38.63,7.24h-8l-3.92,6.94,3.92,6.94-3.81,6.72H18.92l-3.92,7,3.92,6.94h8l3.92-6.94h7.72l3.92,6.94h8l3.92-6.94-3.92-6.95ZM30.34,14.41l2.24-3.81h4.48l2.13,3.81L37,18.21l-2.13-3.8-2.13,3.8ZM25.08,38.6H20.71l-2.24-3.81L20.71,31h4.37l-2.24,3.81H27.2Zm15.11-6.72H28.32l.45-.68,5.6-9.74.45-.67.45.67,5.6,9.74.44.68Zm8.4,6.72H44.11L42,34.79h4.36L44.23,31h4.36l2.24,3.81Z" transform="translate(-15 -7.24)"/></g></svg>
